<?xml version="1.0" standalone="no"?>
<!DOCTYPE svg PUBLIC "-//W3C//DTD SVG 1.1//EN" "http://www.w3.org/Graphics/SVG/1.1/DTD/svg11.dtd" >
<svg xmlns="http://www.w3.org/2000/svg">
<metadata>
Created by FontPrep 20130207 at Tue Sep 16 13:33:01 2014
 By Kate Streckfuss
Copyright (c) 2008 by Jos Buivenga. All rights reserved.
</metadata>
<defs>
<font id="c3e57fb2aade37c692a4a2f96a39f204" horiz-adv-x='1024' >
  <font-face 
    font-family="MuseoSans-700"
    font-weight="600"
    font-stretch="normal"
    units-per-em="2048"
    panose-1="2 0 0 0 0 0 0 0 0 0"
    ascent="1536"
    descent="-512"
    x-height="1044"
    cap-height="1454"
    bbox="-256 -430 2306 1847"
    underline-thickness="102"
    underline-position="-102"
    unicode-range="U+0020-FB04"
  />
<missing-glyph horiz-adv-x="1044" 
d="M174 102h696l-348 523zM113 195l348 522l-348 522v-1044zM584 717l348 -522v1044zM522 809l348 522h-696zM10 0v1434h1024v-1434h-1024z" />
    <glyph glyph-name="f_f" unicode="ff" horiz-adv-x="1421" 
d="M907 0v838h-450v-838h-260v838h-129v206h129v31q0 98 30 171q31 73 76 113q45 39 125 71t195 32l88 -6v-221q-23 4 -54 4q-201 0 -200 -170v-25h450v31q0 98 31 171q92 216 395 216l88 -6v-221q-23 4 -53 4q-201 0 -201 -170v-25h224v-206h-224v-838h-260z" />
    <glyph glyph-name="fi" unicode="fi" horiz-adv-x="1257" 
d="M854 1223v231h258v-231h-258zM854 0v838h-397v-838h-260v838h-129v206h129v31q0 98 30 171q31 73 76 113q45 39 125 71t195 32l88 -6v-221q-23 4 -54 4q-201 0 -200 -170v-25h657v-1044h-260z" />
    <glyph glyph-name="fl" unicode="fl" horiz-adv-x="1292" 
d="M840 326v1128h258v-1089q0 -82 26 -113t80 -31l39 2v-227q-39 -6 -92 -6q-115 0 -203 54q-108 68 -108 282zM197 0v821h-129v207h129v47q0 98 30 171q31 73 76 113q45 39 125 71t195 32l88 -6v-221q-23 4 -54 4q-201 0 -200 -170v-41h223v-207h-223v-821h-260z" />
    <glyph glyph-name="f_f_i" unicode="ffi" horiz-adv-x="1968" 
d="M1565 1223v231h258v-231h-258zM907 0v838h-450v-838h-260v838h-129v206h129v31q0 98 30 171q31 73 76 113q45 39 125 71t195 32l88 -6v-221q-23 4 -54 4q-201 0 -200 -170v-25h450v31q0 98 31 171q92 216 395 216l88 -6v-221q-23 4 -53 4q-201 0 -201 -170v-25h658v-1044
h-260v838h-398v-838h-260z" />
    <glyph glyph-name="f_f_l" unicode="ffl" horiz-adv-x="2002" 
d="M1862 -10q-312 0 -312 336v1128h258v-1089q0 -82 26 -113t81 -31l39 2v-227q-39 -6 -92 -6zM907 0v838h-450v-838h-260v838h-129v206h129v31q0 98 30 171q31 73 76 113q45 39 125 71t195 32l88 -6v-221q-23 4 -54 4q-201 0 -200 -170v-25h450v31q0 98 31 171
q92 216 395 216l88 -6v-221q-23 4 -53 4q-201 0 -201 -170v-25h224v-206h-224v-838h-260z" />
    <glyph glyph-name="f_j" unicode="fj" horiz-adv-x="1257" 
d="M854 1223v231h258v-231h-258zM197 0v838h-129v206h129v31q0 98 30 171q31 73 76 113q45 39 125 71t195 32l88 -6v-221q-23 4 -54 4q-201 0 -200 -170v-25h657v-1075q0 -100 -33 -175t-79 -115q-118 -103 -324 -103l-80 6v219q18 -4 66 -4q48 1 98 25q94 47 92 168v848
h-397v-838h-260z" />
    <glyph glyph-name=".notdef" horiz-adv-x="1044" 
d="M174 102h696l-348 523zM113 195l348 522l-348 522v-1044zM584 717l348 -522v1044zM522 809l348 522h-696zM10 0v1434h1024v-1434h-1024z" />
    <glyph glyph-name=".null" horiz-adv-x="0" 
 />
    <glyph glyph-name="nonmarkingreturn" horiz-adv-x="681" 
 />
    <glyph glyph-name="space" unicode=" " horiz-adv-x="497" 
 />
    <glyph glyph-name="exclam" unicode="!" horiz-adv-x="671" 
d="M211 0v242h252v-242h-252zM223 420l-22 1034h270l-20 -1034h-228z" />
    <glyph glyph-name="quotedbl" unicode="&#x22;" horiz-adv-x="749" 
d="M115 1053v428h192v-428h-192zM442 1053v428h193v-428h-193z" />
    <glyph glyph-name="numbersign" unicode="#" horiz-adv-x="1445" 
d="M557 569h281l51 287h-281zM252 0l65 383h-243l30 186h244l51 287h-239l30 188h242l72 410h209l-72 -410h279l71 410h209l-72 -410h248l-33 -188h-245l-51 -287h243l-30 -186h-246l-66 -383h-209l68 383h-281l-65 -383h-209z" />
    <glyph glyph-name="dollar" unicode="$" horiz-adv-x="1167" 
d="M809 387q0 76 -72 128t-173 94q-100 42 -202 93q-102 52 -174 142t-71 213q0 159 106 271t279 140v193h176v-188q106 -9 196 -47t127 -70l37 -33l-114 -215q-16 14 -44 36t-112 56t-172 35q-88 0 -150 -49t-63 -120q0 -71 71 -121t173 -91t203 -91t172 -142t71 -237
q0 -146 -106 -262t-289 -140v-189h-176v189q-117 14 -219 62t-148 89l-43 41l144 199q97 -97 254 -140q158 -43 258 32q61 46 61 122z" />
    <glyph glyph-name="percent" unicode="%" horiz-adv-x="1622" 
d="M1071 298q0 -56 39 -95t96 -39t98 39q40 39 40 95t-40 96t-98 40t-96 -40q-39 -40 -39 -96zM872 297q0 133 98 228t235 95q139 0 237 -94q98 -96 98 -229t-97 -227t-237 -94t-236 94q-98 94 -98 227zM412 1020q57 0 97 39t40 95t-40 96t-97 40q-56 0 -96 -40t-40 -96
t40 -95t96 -39zM129 0l1116 1454h240l-1116 -1454h-240zM412 831q-138 1 -236 95t-98 228t98 229t236 95t236 -94q100 -96 100 -230t-98 -228t-238 -95z" />
    <glyph glyph-name="ampersand" unicode="&#x26;" horiz-adv-x="1406" 
d="M629 641q-125 -1 -196 -55t-71 -151t70 -157t188 -60t186 67q69 68 68 198v158h-245zM92 412q0 121 68 222t180 140v4q-19 5 -58 36q-39 32 -63 64q-63 81 -63 218q0 184 129 283t329 100q85 0 164 -19l27 -6l-64 -209q-49 12 -96 12q-95 0 -159 -51t-64 -136t51 -142
t170 -58h231v189h261v-189h188v-229h-188v-172q1 -225 -139 -359t-378 -134t-382 124t-144 312z" />
    <glyph glyph-name="quotesingle" unicode="'" horiz-adv-x="425" 
d="M115 1053v428h196v-428h-196z" />
    <glyph glyph-name="parenleft" unicode="(" horiz-adv-x="634" 
d="M133 702q0 430 244 816h219q-231 -389 -231 -838t231 -875h-219q-244 399 -244 897z" />
    <glyph glyph-name="parenright" unicode=")" horiz-adv-x="634" 
d="M270 682q0 446 -231 836h219q244 -385 244 -816q0 -498 -244 -897h-219q231 431 231 877z" />
    <glyph glyph-name="asterisk" unicode="*" horiz-adv-x="944" 
d="M330 657l-187 136l170 204v4l-258 64l70 221l248 -100l-19 268h236l-19 -268l248 100l74 -219l-262 -66v-4l172 -202l-187 -138l-141 226h-4z" />
    <glyph glyph-name="plus" unicode="+" horiz-adv-x="1296" 
d="M100 483v203h443v485h211v-485h442v-203h-442v-483h-211v483h-443z" />
    <glyph glyph-name="comma" unicode="," horiz-adv-x="542" 
d="M35 -215l137 479h256l-197 -479h-196z" />
    <glyph glyph-name="hyphen" unicode="-" horiz-adv-x="935" 
d="M160 471v227h616v-227h-616z" />
    <glyph glyph-name="period" unicode="." horiz-adv-x="526" 
d="M133 0v260h260v-260h-260z" />
    <glyph glyph-name="slash" unicode="/" horiz-adv-x="839" 
d="M55 -86l520 1614h224l-523 -1614h-221z" />
    <glyph glyph-name="zero" unicode="0" horiz-adv-x="1288" 
d="M643 217q256 0 256 509t-256 509t-256 -509t256 -509zM643 -25q-143 -1 -249 57t-164 164q-115 210 -113 533q0 750 526 750q288 0 409 -212t120 -538q-1 -327 -115 -532q-59 -106 -165 -164t-249 -58z" />
    <glyph glyph-name="one" unicode="1" horiz-adv-x="1048" 
d="M111 0v227h315v807l2 99h-4q-16 -35 -64 -82l-116 -111l-156 164l365 350h231v-1227h315v-227h-888z" />
    <glyph glyph-name="two" unicode="2" horiz-adv-x="1187" 
d="M561 1229q-154 0 -262 -172l-197 131q91 182 297 259q86 32 185 32q201 0 337 -116t136 -314q0 -109 -48 -203t-121 -156t-158 -124t-158 -108q-74 -46 -122 -106t-51 -125h680v-227h-964q-13 94 -13 164t38 164q38 92 112 175t205 173t190 137q135 108 135 206
q0 99 -63 155t-158 55z" />
    <glyph glyph-name="three" unicode="3" horiz-adv-x="1175" 
d="M550 225q100 -1 174 61t75 164q0 102 -88 160q-88 57 -224 58h-100l-59 135l266 315l104 111v4q-43 -6 -129 -6h-434v227h889v-166l-356 -411q164 -23 280 -135t117 -299q0 -187 -139 -327t-373 -141q-171 0 -293 63t-170 112l-18 20l135 203q16 -16 44 -41t114 -66
q85 -41 185 -41z" />
    <glyph glyph-name="four" unicode="4" horiz-adv-x="1271" 
d="M336 594h401v450l11 152h-5q-33 -78 -71 -133l-336 -465v-4zM57 375v162l627 917h313v-860h189v-219h-189v-375h-260v375h-680z" />
    <glyph glyph-name="five" unicode="5" horiz-adv-x="1165" 
d="M807 474q0 112 -83 182q-82 70 -202 69q-120 0 -207 -45l-26 -16l-146 53l68 737h764v-227h-537l-22 -240l-10 -67h4q68 33 155 32q233 0 373 -137t139 -346q0 -209 -148 -351t-376 -143q-174 0 -290 66t-157 111l-18 20l135 199q10 -15 48 -45q39 -30 73 -50
q83 -49 191 -50t190 68q82 68 82 180z" />
    <glyph glyph-name="six" unicode="6" horiz-adv-x="1236" 
d="M383 573q0 -137 86 -247q87 -110 193 -109q106 0 165 70q59 69 59 181t-70 188q-71 76 -182 75q-111 0 -181 -45t-70 -113zM1149 461q0 -205 -133 -345q-132 -140 -358 -141q-226 1 -388 187t-161 504q0 249 113 464t314 301q112 48 218 48q185 0 288 -45l33 -17
l-78 -227q-92 45 -204 45q-160 0 -258 -112t-129 -277h4q38 45 116 74t156 28q209 0 338 -141t129 -346z" />
    <glyph glyph-name="seven" unicode="7" horiz-adv-x="1114" 
d="M692 1227h-620v227h999v-184l-637 -1270h-274l545 1094q41 84 75 118l13 15v4q-29 -4 -101 -4z" />
    <glyph glyph-name="eight" unicode="8" horiz-adv-x="1251" 
d="M854 1059q0 84 -59 134t-157 50t-150 -47q-54 -47 -54 -112t55 -130q33 -37 100 -67q67 -31 105 -47l46 -20q7 -3 16 -7q98 109 98 246zM868 420q0 36 -16 66t-62 61t-74 46t-105 49t-101 46q-135 -113 -135 -246q0 -100 74 -167t177 -67t173 59q69 59 69 153zM104 422
q0 94 50 182q49 88 90 127t80 66q-150 115 -150 281t121 284q121 117 337 117t348 -109t132 -289t-162 -364q186 -119 186 -302t-138 -311q-140 -128 -372 -129q-232 1 -377 129t-145 318z" />
    <glyph glyph-name="nine" unicode="9" horiz-adv-x="1236" 
d="M602 721q112 0 182 46t70 112q0 137 -87 247t-193 109q-106 0 -165 -70q-61 -71 -61 -181t70 -186q72 -76 184 -77zM484 -25q-184 0 -287 45l-35 17l78 227q92 -47 202 -47q160 0 259 112t130 277h-4q-39 -45 -117 -74t-157 -28q-209 0 -337 142t-128 346t133 345
t359 141t387 -186q162 -186 161 -504q0 -249 -112 -463q-112 -213 -314 -301q-112 -48 -218 -49z" />
    <glyph glyph-name="colon" unicode=":" horiz-adv-x="589" 
d="M166 0v260h258v-260h-258zM166 784v260h258v-260h-258z" />
    <glyph glyph-name="semicolon" unicode=";" horiz-adv-x="598" 
d="M184 784v260h258v-260h-258zM63 -215l119 479h256l-176 -479h-199z" />
    <glyph glyph-name="less" unicode="&#x3c;" horiz-adv-x="1138" 
d="M51 502v168l985 438v-227l-710 -293v-4l710 -293v-228z" />
    <glyph glyph-name="equal" unicode="=" horiz-adv-x="1335" 
d="M168 274v201h999v-201h-999zM168 694v201h999v-201h-999z" />
    <glyph glyph-name="greater" unicode="&#x3e;" horiz-adv-x="1138" 
d="M102 63v228l711 293v4l-711 293v227l985 -438v-168z" />
    <glyph glyph-name="question" unicode="?" horiz-adv-x="997" 
d="M272 0v242h252v-242h-252zM272 420v98q0 82 35 151t84 115t99 87q120 101 120 202q0 72 -57 121t-125 49q-116 0 -207 -63l-28 -23l-144 178q16 16 46 41t130 66t209 41q182 1 314 -105t133 -280q0 -94 -37 -170t-89 -125q-53 -49 -105 -93q-126 -106 -126 -210v-80h-252
z" />
    <glyph glyph-name="at" unicode="@" horiz-adv-x="1708" 
d="M838 498q0 -84 55 -142t143 -59h158v401h-154q-90 0 -146 -58t-56 -142zM915 -260q-359 0 -585 215t-226 535t222 543q222 222 532 222q308 0 444 -125t136 -321v-512h149v-186h-567q-199 1 -320 113q-120 112 -120 267t120 265t320 110h174q-2 80 -90 130t-221 51
q-219 0 -371 -166t-152 -393q0 -226 153 -386t402 -159v-203z" />
    <glyph glyph-name="A" unicode="A" horiz-adv-x="1304" 
d="M655 1202h-4q-33 -143 -61 -225l-129 -389h381l-129 389zM1030 0l-123 373h-510l-123 -373h-272l512 1454h277l512 -1454h-273z" />
    <glyph glyph-name="B" unicode="B" horiz-adv-x="1314" 
d="M449 227h282q99 1 155 59t56 151t-56 151t-155 59h-282v-420zM449 860h256q84 0 132 52t48 134t-47 132q-47 49 -138 49h-251v-367zM184 0v1454h521q201 0 325 -99t123 -276q0 -102 -47 -184t-129 -127v-4q115 -33 175 -129t60 -213q0 -206 -143 -314t-358 -108h-527z
" />
    <glyph glyph-name="C" unicode="C" horiz-adv-x="1466" 
d="M836 -25q-330 0 -541 217q-211 218 -211 538t214 534t533 215q197 0 332 -65q136 -65 185 -114l20 -20l-127 -197q-18 16 -52 42t-138 69t-207 43q-224 0 -356 -144q-132 -143 -132 -357t136 -366t354 -153q171 0 345 119q38 27 58 45l19 20l139 -190q-24 -30 -86 -76
q-63 -47 -125 -78t-158 -57q-98 -26 -202 -25z" />
    <glyph glyph-name="D" unicode="D" horiz-adv-x="1513" 
d="M449 227h217q225 0 354 130t129 370t-130 370t-353 130h-217v-1000zM184 0v1454h496q340 0 541 -192t201 -533t-202 -535q-200 -194 -540 -194h-496z" />
    <glyph glyph-name="E" unicode="E" horiz-adv-x="1177" 
d="M184 0v1454h871v-227h-606v-381h489v-228h-489v-391h638v-227h-903z" />
    <glyph glyph-name="F" unicode="F" horiz-adv-x="1083" 
d="M184 0v1454h836v-227h-571v-412h481v-227h-481v-588h-265z" />
    <glyph glyph-name="G" unicode="G" horiz-adv-x="1556" 
d="M86 720q0 326 214 542t536 217q196 0 329 -59t191 -105l20 -21l-131 -196q-18 16 -50 39t-133 61t-204 39q-236 0 -368 -142q-132 -141 -132 -365t140 -368t348 -145q98 0 189 38t132 77l43 37v170h-223v227h461v-766h-225v70l2 61h-4q-14 -14 -63 -48
q-150 -105 -359 -108q-297 0 -505 210q-208 209 -208 535z" />
    <glyph glyph-name="H" unicode="H" horiz-adv-x="1562" 
d="M184 0v1454h265v-616h665v616h264v-1454h-264v610h-665v-610h-265z" />
    <glyph glyph-name="I" unicode="I" horiz-adv-x="632" 
d="M184 0v1454h265v-1454h-265z" />
    <glyph glyph-name="J" unicode="J" horiz-adv-x="1120" 
d="M49 430v84h262v-68q-1 -119 55 -174t138 -55t134 53t52 164v793h-375v227h639v-1024q0 -223 -134 -339t-319 -116t-319 117q-133 117 -133 338z" />
    <glyph glyph-name="K" unicode="K" horiz-adv-x="1325" 
d="M184 0v1454h265v-592h188l342 592h287l-412 -692v-4l436 -758h-297l-356 635h-188v-635h-265z" />
    <glyph glyph-name="L" unicode="L" horiz-adv-x="1103" 
d="M184 0v1454h265v-1227h628v-227h-893z" />
    <glyph glyph-name="M" unicode="M" horiz-adv-x="1798" 
d="M139 0l119 1454h283l284 -719l74 -213h4q39 127 72 213l285 719h282l117 -1454h-262l-62 813l-2 225h-4q-43 -141 -78 -225l-235 -563h-232l-233 563l-80 227h-4q4 -131 -2 -227l-62 -813h-264z" />
    <glyph glyph-name="N" unicode="N" horiz-adv-x="1556" 
d="M184 0v1454h265l550 -840q51 -76 103 -188l18 -37h4q-14 139 -14 225v840h262v-1454h-262l-551 838q-41 61 -102 186l-19 39h-4q14 -139 15 -225v-838h-265z" />
    <glyph glyph-name="O" unicode="O" horiz-adv-x="1671" 
d="M836 1237q-200 1 -340 -143t-140 -362t140 -366t340 -148q201 0 340 148t139 366t-139 362t-340 143zM1587 733q0 -317 -216 -537t-535 -220q-320 0 -536 219t-216 537t216 532t536 215q320 0 535 -214q216 -214 216 -532z" />
    <glyph glyph-name="P" unicode="P" horiz-adv-x="1257" 
d="M449 731h247q115 0 180 68q64 67 64 181t-64 180t-176 67h-251v-496zM184 0v1454h561q205 0 334 -131t129 -342t-129 -345t-334 -134h-296v-502h-265z" />
    <glyph glyph-name="Q" unicode="Q" horiz-adv-x="1691" 
d="M1315 735q0 215 -138 359t-341 143q-204 1 -342 -143t-138 -362t138 -366t340 -149q141 0 253 76l-161 153l151 166l158 -157q80 129 80 280zM84 732q0 316 215 532t536 215q321 0 537 -214t215 -530q0 -250 -160 -461l164 -147l-151 -168l-162 160q-188 -143 -444 -144
q-318 1 -534 221t-216 536z" />
    <glyph glyph-name="R" unicode="R" horiz-adv-x="1347" 
d="M449 772h237q106 0 168 60t61 172q0 110 -59 166t-207 57h-200v-455zM184 0v1454h469q203 0 303 -46t164 -148t64 -240t-67 -247q-67 -110 -179 -155v-4q20 -20 49 -71l299 -543h-295l-289 543h-253v-543h-265z" />
    <glyph glyph-name="S" unicode="S" horiz-adv-x="1134" 
d="M104 1057q0 180 140 301t348 121q128 0 236 -39t153 -78l45 -39l-115 -215q-16 14 -44 36q-27 22 -111 56t-172 35q-88 0 -150 -49t-63 -122q1 -73 71 -124t170 -90t200 -88t172 -140q71 -91 71 -221q0 -180 -130 -303t-331 -123t-328 67t-172 112l-20 20l143 199
q17 -17 62 -49q144 -103 288 -104q101 -1 162 45t61 123t-70 131q-71 54 -171 95q-99 40 -201 90t-173 140t-71 213z" />
    <glyph glyph-name="T" unicode="T" horiz-adv-x="1234" 
d="M485 0v1227h-477v227h1219v-227h-477v-1227h-265z" />
    <glyph glyph-name="U" unicode="U" horiz-adv-x="1501" 
d="M164 522v932h264v-932q0 -143 87 -224t235 -81t235 81q88 81 88 226v930h264v-932q1 -244 -161 -396t-425 -151q-263 -1 -425 151t-162 396z" />
    <glyph glyph-name="V" unicode="V" horiz-adv-x="1318" 
d="M528 0l-530 1454h285l319 -948q21 -66 47 -178l8 -35h5l8 35q29 127 47 178l321 948h283l-530 -1454h-263z" />
    <glyph glyph-name="W" unicode="W" horiz-adv-x="1978" 
d="M1102 1454l258 -1005q17 -62 26 -154h5q6 72 24 154l240 1005h272l-375 -1454h-305l-223 860l-37 191h-4q-12 -96 -37 -191l-223 -860h-305l-365 1454h273l229 -1005l25 -154h4q9 92 26 154l262 1005h230z" />
    <glyph glyph-name="X" unicode="X" horiz-adv-x="1296" 
d="M35 0l452 737l-434 717h301l199 -356l92 -178h4q41 92 88 178l203 356h303l-438 -717l455 -737h-297l-226 391l-90 172h-4q-41 -88 -90 -172l-223 -391h-295z" />
    <glyph glyph-name="Y" unicode="Y" horiz-adv-x="1239" 
d="M487 0v608l-483 846h299l227 -428q17 -31 31 -63q14 -33 28 -63t25 -64l4 -5h5q41 104 88 195l225 428h299l-483 -846v-608h-265z" />
    <glyph glyph-name="Z" unicode="Z" horiz-adv-x="1257" 
d="M78 0v170l645 926q50 74 92 116l14 15v4q-41 -4 -108 -4h-610v227h1050v-168l-645 -928q-50 -74 -92 -116l-14 -15v-4q41 4 108 4h651v-227h-1091z" />
    <glyph glyph-name="bracketleft" unicode="[" horiz-adv-x="649" 
d="M190 -195v1713h404v-189h-182v-1335h182v-189h-404z" />
    <glyph glyph-name="backslash" unicode="\" horiz-adv-x="841" 
d="M563 -86l-522 1614h223l522 -1614h-223z" />
    <glyph glyph-name="bracketright" unicode="]" horiz-adv-x="649" 
d="M55 -6h183v1335h-183v189h404v-1713h-404v189z" />
    <glyph glyph-name="asciicircum" unicode="^" horiz-adv-x="1267" 
d="M133 502l412 952h164l411 -952h-225l-268 678l-269 -678h-225z" />
    <glyph glyph-name="underscore" unicode="_" horiz-adv-x="1230" 
d="M41 0h1149v-201h-1149v201z" />
    <glyph glyph-name="grave" unicode="`" horiz-adv-x="1009" 
d="M506 1550l-213 279h268l156 -279h-211z" />
    <glyph glyph-name="a" unicode="a" horiz-adv-x="1093" 
d="M317 313q0 -55 41 -95t128 -40t156 87t69 188v24h-45q-349 0 -349 -164zM674 655h35v15q0 184 -201 184q-66 0 -138 -26t-110 -50l-39 -24l-98 186q18 14 52 36t140 58t217 35q207 -1 321 -109t114 -307v-653h-240v86l4 74h-4q2 0 -15 -32t-69 -73q-101 -78 -241 -79
q-139 -1 -243 87t-104 242t122 234q122 79 252 98q129 18 245 18z" />
    <glyph glyph-name="b" unicode="b" horiz-adv-x="1251" 
d="M918 517q0 149 -72 239t-186 90t-190 -83t-75 -231q0 -148 69 -242q68 -95 186 -95t193 87t75 235zM143 0v1454h260v-448l-4 -88h4q40 60 91 89q109 62 223 62q211 1 337 -151t126 -397t-134 -395t-346 -151q-120 0 -199 53t-100 87l-12 16h-4q4 -31 4 -72v-59h-246z" />
    <glyph glyph-name="c" unicode="c" horiz-adv-x="1116" 
d="M68 520q0 231 156 390q157 159 411 159q121 0 221 -39t139 -78l41 -39l-114 -178q-41 41 -120 77t-153 36q-141 0 -229 -93t-88 -231t90 -232q90 -95 235 -95q78 1 155 33t114 65l39 35l100 -185q-167 -167 -425 -168q-259 -2 -416 155q-156 157 -156 388z" />
    <glyph glyph-name="d" unicode="d" horiz-adv-x="1251" 
d="M592 195q114 0 188 83q76 83 76 230q0 146 -69 242t-187 96t-192 -87t-74 -235t72 -239q72 -90 186 -90zM848 995v459h260v-1454h-246v86l4 68h-4q-12 -25 -43 -59q-106 -117 -284 -120q-211 -1 -337 151t-126 397t132 396t340 151t302 -134h4q-2 27 -2 59z" />
    <glyph glyph-name="e" unicode="e" horiz-adv-x="1134" 
d="M588 868q-94 0 -160 -58t-84 -159h457q-3 101 -61 159t-152 58zM70 528q0 236 148 388t374 153q226 0 349 -140q122 -140 122 -356l-6 -100h-721q12 -131 101 -204t212 -72q74 1 150 29t114 57l37 28l101 -186q-18 -18 -66 -48q-161 -99 -354 -102q-252 0 -407 159
q-154 158 -154 394z" />
    <glyph glyph-name="f" unicode="f" horiz-adv-x="710" 
d="M197 0v821h-129v207h129v47q0 98 30 171q31 73 76 113q45 39 125 71t195 32l88 -6v-221q-23 4 -54 4q-201 0 -200 -170v-41h223v-207h-223v-821h-260z" />
    <glyph glyph-name="g" unicode="g" horiz-adv-x="1236" 
d="M590 240q114 0 182 72t68 235q0 301 -258 301q-117 0 -182 -79q-64 -79 -64 -216t70 -225t184 -88zM526 -209q144 -1 226 61t82 193v61l4 56h-4q-94 -142 -301 -142t-333 153t-126 377t123 372t340 147q167 0 265 -86q26 -21 44 -47h6q-2 12 -2 29v79h244v-981
q0 -129 -47 -227q-83 -174 -303 -238q-95 -28 -201 -28q-201 0 -371 90l78 199q132 -68 276 -68z" />
    <glyph glyph-name="h" unicode="h" horiz-adv-x="1255" 
d="M143 0v1454h260v-504l-4 -88h4q43 84 139 146t222 61q362 0 362 -397v-672h-258v618q0 104 -35 159q-35 54 -133 54t-174 -60q-121 -95 -123 -292v-479h-260z" />
    <glyph glyph-name="i" unicode="i" horiz-adv-x="546" 
d="M143 0v1044h260v-1044h-260zM143 1223v231h258v-231h-258z" />
    <glyph glyph-name="j" unicode="j" horiz-adv-x="546" 
d="M143 1044h260v-1075q-1 -100 -33 -175t-78 -115q-46 -39 -128 -71t-197 -32l-80 6v219q18 -4 66 -4q48 1 98 25q94 46 92 168v1054zM143 1223v231h258v-231h-258z" />
    <glyph glyph-name="k" unicode="k" horiz-adv-x="1130" 
d="M143 0v1454h260v-778h129l252 368h289l-330 -466v-5l371 -573h-299l-276 457h-136v-457h-260z" />
    <glyph glyph-name="l" unicode="l" horiz-adv-x="581" 
d="M440 -10q-312 0 -311 336v1128h258v-1089q0 -82 26 -113t81 -31l38 2v-227q-40 -6 -92 -6z" />
    <glyph glyph-name="m" unicode="m" horiz-adv-x="1869" 
d="M143 0v1044h250v-120l-4 -72h4q43 86 134 152t206 65q240 0 305 -215h4q44 90 142 152t215 63q342 0 342 -397v-672h-260v623q0 102 -30 155t-120 53q-89 -1 -155 -67q-102 -104 -103 -305v-459h-260v623q0 100 -29 154q-28 54 -118 54q-90 -1 -157 -67
q-104 -103 -106 -305v-459h-260z" />
    <glyph glyph-name="n" unicode="n" horiz-adv-x="1255" 
d="M143 0v1044h250v-120l-4 -72h4q43 84 136 150t235 67q362 0 362 -397v-672h-258v618q0 104 -35 159q-37 54 -135 54t-172 -58q-121 -95 -123 -294v-479h-260z" />
    <glyph glyph-name="o" unicode="o" horiz-adv-x="1280" 
d="M641 848q-129 0 -220 -92t-91 -235q0 -142 90 -233t220 -91t220 91t90 233q0 143 -90 235t-219 92zM66 522q0 238 166 392t407 155q242 0 409 -155q166 -154 166 -392t-166 -392t-408 -155q-242 1 -408 155t-166 392z" />
    <glyph glyph-name="p" unicode="p" horiz-adv-x="1251" 
d="M918 517q0 149 -72 239t-186 90t-190 -83t-75 -231q0 -148 69 -242q68 -95 186 -95t193 87t75 235zM143 -410v1454h238v-75l-4 -72h4q4 6 11 18t36 42q108 112 304 112q196 1 322 -151t126 -397t-134 -395t-344 -151q-118 0 -192 49t-107 95h-4q4 -37 4 -90v-439h-260z
" />
    <glyph glyph-name="q" unicode="q" horiz-adv-x="1251" 
d="M592 195q114 0 188 83q76 83 76 230q0 146 -69 242t-187 96t-192 -87t-74 -235t72 -239q72 -90 186 -90zM72 523q0 245 132 396t341 150q102 0 181 -38t108 -77l28 -36h4q-4 27 -4 67v59h246v-1454h-260v451l4 90h-4q-102 -153 -313 -154q-211 -3 -337 149t-126 397z" />
    <glyph glyph-name="r" unicode="r" horiz-adv-x="804" 
d="M143 0v1044h250v-180l-4 -73h4q37 117 126 193t206 75l47 -4v-256q-27 4 -61 4q-92 0 -171 -55q-137 -95 -137 -334v-414h-260z" />
    <glyph glyph-name="s" unicode="s" horiz-adv-x="925" 
d="M596 289q0 43 -52 77t-127 62t-150 67q-75 37 -127 105t-52 162q0 141 113 224t286 83q105 0 193 -30t123 -60l35 -29l-97 -192q-34 34 -109 62q-74 28 -138 28t-103 -24t-39 -66t52 -75t127 -61t150 -65t127 -105t52 -163q0 -135 -108 -224t-291 -90q-115 0 -216 38
t-147 77l-43 39l119 182q42 -42 126 -79q84 -36 150 -36t106 26q40 24 40 67z" />
    <glyph glyph-name="t" unicode="t" horiz-adv-x="772" 
d="M188 383v438h-135v207h142v301h254v-301h237v-207h-237v-405q1 -113 65 -155t141 -42l47 4v-227q-32 -6 -82 -6t-100 7t-112 32q-63 25 -110 64q-46 40 -78 115t-32 175z" />
    <glyph glyph-name="u" unicode="u" horiz-adv-x="1247" 
d="M129 373v671h260v-618q0 -104 36 -158t126 -55q135 0 214 102t79 250v479h260v-1044h-250v119l4 74h-4q-43 -88 -140 -153t-222 -65q-363 1 -363 398z" />
    <glyph glyph-name="v" unicode="v" horiz-adv-x="1062" 
d="M379 0l-379 1044h274l218 -647q8 -27 17 -67t15 -64l4 -26h4l5 26q6 25 15 65t17 66l217 647h275l-375 -1044h-307z" />
    <glyph glyph-name="w" unicode="w" horiz-adv-x="1681" 
d="M348 0l-319 1044h274l182 -686l21 -110h4q10 55 25 110l192 684h231l193 -684l23 -110h4q8 55 22 110l182 686h271l-318 -1044h-288l-177 596l-26 113h-4q-8 -57 -25 -113l-176 -596h-291z" />
    <glyph glyph-name="x" unicode="x" horiz-adv-x="1073" 
d="M539 358h-4q-14 -33 -29 -55l-182 -303h-289l344 528l-336 516h295l162 -284l35 -66h4q18 39 34 66l162 284h295l-336 -516l344 -528h-288l-183 303z" />
    <glyph glyph-name="y" unicode="y" horiz-adv-x="1067" 
d="M205 -211q123 0 180 135l39 92l-440 1028h292l220 -602l39 -141h4q16 82 34 137l205 606h285l-467 -1202q-52 -136 -152 -204t-225 -68q-55 0 -109 16t-81 33l-27 19l86 194q57 -43 117 -43z" />
    <glyph glyph-name="z" unicode="z" horiz-adv-x="1073" 
d="M72 0v139l469 588q32 43 77 84l11 12v4q-31 -4 -97 -4h-440v221h889v-141l-469 -588q-41 -55 -90 -96v-4q31 6 98 6h475v-221h-923z" />
    <glyph glyph-name="braceleft" unicode="{" horiz-adv-x="747" 
d="M262 145v199q0 113 -57 160t-117 53v227q21 0 55 14q119 50 119 203v177q0 88 28 154t65 103q94 89 270 89l63 -2v-193q-16 2 -45 2t-61 -9t-66 -51q-33 -42 -33 -114v-223q0 -117 -56 -179q-56 -61 -112 -81v-4q107 -36 150 -151q18 -48 18 -107v-246q-1 -112 59 -143
t109 -31l37 2v-193q-27 -4 -91 -4q-64 1 -134 27t-108 62q-37 36 -65 102t-28 157z" />
    <glyph glyph-name="bar" unicode="|" horiz-adv-x="593" 
d="M186 -330v1960h222v-1960h-222z" />
    <glyph glyph-name="braceright" unicode="}" horiz-adv-x="747" 
d="M96 -8q166 0 166 174v246q0 119 59 180t111 78v4q-62 21 -115 84q-53 64 -55 176v223q0 109 -57 142q-57 32 -109 32l-37 -2v193q27 2 92 2t134 -26t107 -63q38 -36 66 -103t27 -154v-177q0 -92 44 -146t87 -62l43 -9v-227q-20 0 -55 -14q-34 -15 -58 -35t-42 -64
t-19 -100v-199q1 -91 -27 -157t-66 -102q-94 -89 -269 -89l-64 4v193q16 -2 37 -2z" />
    <glyph glyph-name="asciitilde" unicode="~" horiz-adv-x="1249" 
d="M115 408q0 373 315 372q70 0 126 -28t88 -65q83 -93 154 -93q72 0 104 51t32 127h205q0 -373 -314 -373q-70 0 -126 29t-88 64q-84 92 -155 92q-70 0 -102 -50t-32 -126h-207z" />
    <glyph glyph-name="uni00A0" unicode="&#xa0;" horiz-adv-x="497" 
 />
    <glyph glyph-name="exclamdown" unicode="&#xa1;" horiz-adv-x="624" 
d="M176 -410l23 1033h227l20 -1033h-270zM186 801v241h250v-241h-250z" />
    <glyph glyph-name="cent" unicode="&#xa2;" horiz-adv-x="1179" 
d="M526 -25v177q-194 32 -314 192t-120 383t120 384t314 194v172h176v-172q136 -25 238 -113t152 -219l-234 -90q-74 182 -237 182q-119 0 -193 -95t-74 -246t72 -243t195 -92q164 0 237 182l234 -90q-50 -125 -150 -219t-240 -110v-177h-176z" />
    <glyph glyph-name="sterling" unicode="&#xa3;" horiz-adv-x="1210" 
d="M135 637v178h88v248q0 180 132 298t335 118q98 0 190 -37t134 -74l43 -37l-150 -180q-97 88 -199 88t-159 -52t-57 -132v-240h362v-178h-362v-410h638v-227h-1026v227h119v410h-88z" />
    <glyph glyph-name="yen" unicode="&#xa5;" horiz-adv-x="1257" 
d="M162 707v155h200l-315 592h301l191 -387q49 -96 77 -199l11 -34h4q35 125 88 233l190 387h301l-315 -592h201v-155h-281l-51 -101v-67h332v-156h-332v-383h-268v383h-334v156h334v67l-54 101h-280z" />
    <glyph glyph-name="section" unicode="&#xa7;" horiz-adv-x="962" 
d="M188 174q108 -90 249 -90q75 0 134 52t60 155q0 35 -19 117l-137 661h205l145 -704q14 -66 15 -105q0 -172 -109 -280t-311 -107q-96 0 -181 31t-124 63l-37 31zM117 1104q0 166 111 270q112 104 309 105q96 0 181 -32t122 -63l39 -32l-117 -166q-94 80 -206 80
q-228 0 -228 -193q0 -35 14 -102l141 -688h-202l-150 704q-14 68 -14 117z" />
    <glyph glyph-name="dieresis" unicode="&#xa8;" horiz-adv-x="1009" 
d="M217 1591v238h201v-238h-201zM594 1591v238h199v-238h-199z" />
    <glyph glyph-name="copyright" unicode="&#xa9;" horiz-adv-x="1656" 
d="M453 723q0 166 108 283q109 116 281 116t279 -138q26 -32 36 -54l10 -23l-155 -73q-36 71 -108 105q-30 13 -62 13q-90 0 -146 -65q-55 -66 -55 -165t54 -164t147 -64q53 0 95 30t58 58l17 30l155 -71q-4 -7 -11 -23t-35 -53q-27 -37 -61 -66t-94 -53t-130 -22
q-166 0 -275 116q-108 117 -108 283zM276 727q0 -246 159 -416t393 -170t394 170q161 170 160 416q0 246 -160 415t-394 169t-393 -169t-159 -415zM94 727q0 311 214 530t519 219t521 -218q216 -220 215 -531q0 -311 -215 -531q-214 -220 -520 -220t-520 220t-214 531z" />
    <glyph glyph-name="ordfeminine" unicode="&#xaa;" horiz-adv-x="845" 
d="M129 545v139h586v-139h-586zM402 928q46 0 83 45t37 102v15h-22q-188 0 -189 -93q1 -31 23 -50t68 -19zM332 784q-74 0 -140 54t-65 147q0 225 379 225h18v15q0 106 -118 106q-71 0 -144 -41l-24 -14l-66 121q37 29 113 54q76 24 149 24q133 0 204 -71t71 -196v-411h-172
v90h-5q-6 -13 -18 -29t-60 -45t-122 -29z" />
    <glyph glyph-name="guillemotleft" unicode="&#xab;" horiz-adv-x="1196" 
d="M408 158l-336 420l336 421h247l-336 -421l336 -420h-247zM530 578l336 421h248l-336 -421l336 -420h-248z" />
    <glyph glyph-name="logicalnot" unicode="&#xac;" horiz-adv-x="1234" 
d="M96 694v201h1000v-602h-209v401h-791z" />
    <glyph glyph-name="uni00AD" unicode="&#xad;" horiz-adv-x="882" 
d="M133 471v227h617v-227h-617z" />
    <glyph glyph-name="registered" unicode="&#xae;" horiz-adv-x="1656" 
d="M743 756h97q51 0 80 30t28 82q0 53 -28 82q-29 29 -78 29h-99v-223zM569 356v750h312q111 0 179 -66t66 -159q0 -93 -42 -144t-91 -63v-4q8 -8 27 -43l141 -271h-192l-127 277h-99v-277h-174zM276 727q0 -246 159 -416t393 -170t394 170q161 170 160 416q0 246 -160 415
t-394 169t-393 -169t-159 -415zM94 727q0 311 214 530t519 219t521 -218q216 -220 215 -531q0 -311 -215 -531q-214 -220 -520 -220t-520 220t-214 531z" />
    <glyph glyph-name="macron" unicode="&#xaf;" horiz-adv-x="1009" 
d="M238 1604v178h536v-178h-536z" />
    <glyph glyph-name="degree" unicode="&#xb0;" 
d="M406 1022q57 0 97 39t40 95t-40 96t-97 40q-56 0 -96 -40t-40 -96t40 -95t96 -39zM406 836q-139 0 -237 93q-97 93 -97 227t97 229t235 95t237 -94q98 -96 98 -230t-97 -227t-236 -93z" />
    <glyph glyph-name="plusminus" unicode="&#xb1;" horiz-adv-x="1296" 
d="M129 -174h1040v-201h-1040v201zM100 483v203h443v485h211v-485h442v-203h-442v-483h-211v483h-443z" />
    <glyph glyph-name="twosuperior" unicode="&#xb2;" 
d="M90 950q0 98 44 175t106 122t124 83t106 80t44 89t-36 77t-84 30t-89 -24t-59 -46l-21 -25l-127 113q71 107 192 144q52 17 109 18q129 0 221 -75t91 -204q0 -83 -40 -147q-41 -64 -99 -104t-116 -72t-102 -70q-44 -37 -49 -78h418v-170h-625q-8 57 -8 84z" />
    <glyph glyph-name="threesuperior" unicode="&#xb3;" 
d="M379 846q-92 0 -168 34t-107 68l-30 35l102 137q30 -37 85 -67q55 -29 115 -29t103 37t43 92t-47 86t-113 31h-71l-41 92l162 184l49 49v4q-41 -6 -72 -6h-264v172h573v-125l-202 -229q100 -18 161 -86q61 -67 61 -183t-93 -206q-94 -90 -246 -90z" />
    <glyph glyph-name="acute" unicode="&#xb4;" horiz-adv-x="1009" 
d="M293 1550l156 279h268l-215 -279h-209z" />
    <glyph glyph-name="mu" unicode="&#xb5;" horiz-adv-x="1288" 
d="M158 -410v1454h258v-618q0 -104 36 -158t126 -55q135 0 214 102t78 250v479h260v-1044h-249v127l4 66h-6l-12 -24q-7 -15 -38 -52q-68 -82 -171 -118q-64 -24 -152 -24t-121 33l-14 10h-4q14 -100 14 -170v-258h-223z" />
    <glyph glyph-name="mu" unicode="&#x3bc;" horiz-adv-x="1288" 
d="M158 -410v1454h258v-618q0 -104 36 -158t126 -55q135 0 214 102t78 250v479h260v-1044h-249v127l4 66h-6l-12 -24q-7 -15 -38 -52q-68 -82 -171 -118q-64 -24 -152 -24t-121 33l-14 10h-4q14 -100 14 -170v-258h-223z" />
    <glyph glyph-name="paragraph" unicode="&#xb6;" horiz-adv-x="1255" 
d="M870 -102v1216h191v-1216h-191zM555 -102v596q-199 0 -340 140t-141 341t141 340t340 139h625v-227h-437v-1329h-188z" />
    <glyph glyph-name="periodcentered" unicode="&#xb7;" horiz-adv-x="567" 
d="M158 469v258h252v-258h-252z" />
    <glyph glyph-name="cedilla" unicode="&#xb8;" horiz-adv-x="1009" 
d="M678 -258q0 -82 -64 -125t-144 -43t-122 12l-16 2v144q43 -16 88 -17q90 1 90 57t-98 56l-43 -4l63 227l119 -26v-15l-23 -100q150 -18 150 -168z" />
    <glyph glyph-name="onesuperior" unicode="&#xb9;" 
d="M137 866v170h189v424l4 58h-4q-8 -18 -31 -39l-64 -60l-114 123l231 223h172v-729h187v-170h-570z" />
    <glyph glyph-name="ordmasculine" unicode="&#xba;" horiz-adv-x="935" 
d="M139 545v139h660v-139h-660zM295 1132q0 -78 50 -130t123 -52t123 51t50 131t-50 130q-50 51 -123 51t-123 -51t-50 -130zM827 1132q0 -148 -104 -248q-104 -98 -255 -98t-255 98t-104 248q0 148 104 245t255 97t255 -96q104 -98 104 -246z" />
    <glyph glyph-name="guillemotright" unicode="&#xbb;" horiz-adv-x="1198" 
d="M82 158l336 420l-336 421h248l336 -421l-336 -420h-248zM543 158l336 420l-336 421h248l335 -421l-335 -420h-248z" />
    <glyph glyph-name="onequarter" unicode="&#xbc;" horiz-adv-x="2000" 
d="M1413 371h219v225l6 113h-4q-25 -55 -53 -97l-168 -237v-4zM1632 0v203h-418v131l388 565h221v-528h119v-168h-119v-203h-191zM135 555v170h189v424l4 57h-4q-8 -18 -31 -39l-64 -59l-114 123l231 223h172v-729h187v-170h-570zM754 0h-191l688 1454h189z" />
    <glyph glyph-name="onehalf" unicode="&#xbd;" horiz-adv-x="2004" 
d="M1872 641q0 -83 -40 -147t-98 -104t-116 -73t-104 -69q-44 -37 -48 -78h418v-170h-624q-8 56 -8 112t31 124q32 68 79 108q105 90 177 132q138 79 136 157q0 47 -36 77t-84 30t-89 -24t-61 -48l-19 -23l-126 113q4 6 11 17t35 39q104 104 263 105q121 1 212 -74t91 -204z
M109 555v170h188v424l4 57h-4q-8 -18 -31 -39l-63 -59l-115 123l231 223h173v-729h186v-170h-569zM733 0h-190l688 1454h188z" />
    <glyph glyph-name="threequarters" unicode="&#xbe;" horiz-adv-x="2019" 
d="M373 535q-92 -1 -168 33t-107 69l-30 35l102 137q8 -11 24 -27t66 -43t110 -27t103 38q43 37 43 92t-47 86t-113 30h-71l-41 93l162 184l49 49v4q-41 -6 -72 -6h-264v172h573v-125l-203 -229q99 -18 161 -86t62 -184t-93 -205q-94 -90 -246 -90zM1405 371h219v225l6 113
h-4q-25 -55 -53 -97l-168 -237v-4zM1624 0v203h-418v131l387 565h222v-528h118v-168h-118v-203h-191zM745 0h-190l688 1454h189z" />
    <glyph glyph-name="questiondown" unicode="&#xbf;" horiz-adv-x="940" 
d="M66 -45q0 92 36 168q37 76 89 125t106 94q127 108 127 211v72h250v-90q0 -82 -35 -151t-84 -115t-98 -88q-119 -102 -119 -201q0 -72 57 -122t125 -50q109 -1 205 65l29 23l145 -181q-16 -16 -47 -41q-31 -24 -131 -64t-207 -40q-182 0 -315 104t-133 281zM424 803v241
h250v-241h-250z" />
    <glyph glyph-name="Agrave" unicode="&#xc0;" horiz-adv-x="1304" 
d="M553 1550l-213 279h268l156 -279h-211zM655 1202h-4q-33 -143 -61 -225l-129 -389h381l-129 389zM1030 0l-123 373h-510l-123 -373h-272l512 1454h277l512 -1454h-273z" />
    <glyph glyph-name="Aacute" unicode="&#xc1;" horiz-adv-x="1304" 
d="M541 1550l155 279h269l-215 -279h-209zM655 1202h-4q-33 -143 -61 -225l-129 -389h381l-129 389zM1030 0l-123 373h-510l-123 -373h-272l512 1454h277l512 -1454h-273z" />
    <glyph glyph-name="Acircumflex" unicode="&#xc2;" horiz-adv-x="1304" 
d="M334 1550l188 279h260l191 -279h-215l-103 166h-4l-102 -166h-215zM655 1202h-4q-33 -143 -61 -225l-129 -389h381l-129 389zM1030 0l-123 373h-510l-123 -373h-272l512 1454h277l512 -1454h-273z" />
    <glyph glyph-name="Atilde" unicode="&#xc3;" horiz-adv-x="1304" 
d="M281 1552q0 281 229 281q59 0 105 -34q46 -35 83 -67t70 -32q80 0 80 127h176q0 -281 -229 -281q-59 0 -105 34t-84 67q-37 33 -69 32q-78 0 -78 -127h-178zM655 1202h-4q-33 -143 -61 -225l-129 -389h381l-129 389zM1030 0l-123 373h-510l-123 -373h-272l512 1454h277
l512 -1454h-273z" />
    <glyph glyph-name="Adieresis" unicode="&#xc4;" horiz-adv-x="1304" 
d="M365 1591v238h200v-238h-200zM741 1591v238h199v-238h-199zM655 1202h-4q-33 -143 -61 -225l-129 -389h381l-129 389zM1030 0l-123 373h-510l-123 -373h-272l512 1454h277l512 -1454h-273z" />
    <glyph glyph-name="Aring" unicode="&#xc5;" horiz-adv-x="1304" 
d="M584 1687q0 -31 18 -51t50 -20t51 19t19 51t-18 52q-20 19 -51 19t-50 -19t-19 -51zM652 1526q-79 0 -136 43t-57 118t57 117t136 43q79 0 136 -43q58 -44 58 -118t-58 -117t-136 -43zM655 1202h-4q-33 -143 -61 -225l-129 -389h381l-129 389zM1030 0l-123 373h-510
l-123 -373h-272l512 1454h277l512 -1454h-273z" />
    <glyph glyph-name="AE" unicode="&#xc6;" horiz-adv-x="1849" 
d="M858 838v389h-108l-154 -389h262zM1729 1454v-227h-609v-381h492v-228h-492v-391h639v-227h-901v623h-346l-246 -623h-274l604 1454h1133z" />
    <glyph glyph-name="Ccedilla" unicode="&#xc7;" horiz-adv-x="1470" 
d="M862 -90q150 -18 150 -168q0 -82 -64 -125t-157 -43q-27 0 -125 14v144q43 -16 88 -17q90 1 90 57t-99 56l-43 -4l43 158q-293 32 -475 242t-182 518t214 522t534 215q196 0 331 -65q136 -65 185 -114l20 -20l-127 -197q-18 16 -52 42t-138 69t-207 43q-223 0 -355 -144
q-133 -143 -133 -357t136 -366t354 -153q171 0 345 119q38 27 58 45l19 20l139 -190q-8 -7 -22 -23q-13 -16 -65 -55t-110 -69t-149 -56q-92 -27 -188 -31z" />
    <glyph glyph-name="Egrave" unicode="&#xc8;" horiz-adv-x="1177" 
d="M541 1550l-213 279h268l156 -279h-211zM184 0v1454h871v-227h-606v-381h489v-228h-489v-391h638v-227h-903z" />
    <glyph glyph-name="Eacute" unicode="&#xc9;" horiz-adv-x="1177" 
d="M528 1550l156 279h268l-215 -279h-209zM184 0v1454h871v-227h-606v-381h489v-228h-489v-391h638v-227h-903z" />
    <glyph glyph-name="Ecircumflex" unicode="&#xca;" horiz-adv-x="1177" 
d="M322 1550l188 279h260l191 -279h-216l-102 166h-4l-102 -166h-215zM184 0v1454h871v-227h-606v-381h489v-228h-489v-391h638v-227h-903z" />
    <glyph glyph-name="Edieresis" unicode="&#xcb;" horiz-adv-x="1177" 
d="M352 1591v238h201v-238h-201zM729 1591v238h199v-238h-199zM184 0v1454h871v-227h-606v-381h489v-228h-489v-391h638v-227h-903z" />
    <glyph glyph-name="Igrave" unicode="&#xcc;" horiz-adv-x="632" 
d="M219 1550l-213 279h268l156 -279h-211zM184 0v1454h265v-1454h-265z" />
    <glyph glyph-name="Iacute" unicode="&#xcd;" horiz-adv-x="632" 
d="M205 1550l155 279h269l-215 -279h-209zM184 0v1454h265v-1454h-265z" />
    <glyph glyph-name="Icircumflex" unicode="&#xce;" horiz-adv-x="632" 
d="M-2 1550l188 279h260l191 -279h-215l-103 166h-4l-102 -166h-215zM184 0v1454h265v-1454h-265z" />
    <glyph glyph-name="Idieresis" unicode="&#xcf;" horiz-adv-x="632" 
d="M31 1591v238h200v-238h-200zM408 1591v238h198v-238h-198zM184 0v1454h265v-1454h-265z" />
    <glyph glyph-name="Eth" unicode="&#xd0;" horiz-adv-x="1552" 
d="M487 227h218q225 0 354 130t129 370t-130 370t-353 130h-218v-396h271v-215h-271v-389zM104 616v215h119v623h496q340 0 541 -192q200 -192 200 -533t-200 -535t-541 -194h-496v616h-119z" />
    <glyph glyph-name="Ntilde" unicode="&#xd1;" horiz-adv-x="1556" 
d="M408 1552q0 281 229 281q59 0 105 -34q46 -35 83 -67t70 -32q80 0 80 127h176q0 -281 -229 -281q-60 0 -106 34t-83 67t-69 32q-78 0 -78 -127h-178zM184 0v1454h265l550 -840q51 -76 103 -188l18 -37h4q-14 139 -14 225v840h262v-1454h-262l-551 838q-41 61 -102 186
l-19 39h-4q14 -139 15 -225v-838h-265z" />
    <glyph glyph-name="Ograve" unicode="&#xd2;" horiz-adv-x="1671" 
d="M737 1550l-213 279h269l155 -279h-211zM836 1237q-200 1 -340 -143t-140 -362t140 -366t340 -148q201 0 340 148t139 366t-139 362t-340 143zM1587 733q0 -317 -216 -537t-535 -220q-320 0 -536 219t-216 537t216 532t536 215q320 0 535 -214q216 -214 216 -532z" />
    <glyph glyph-name="Oacute" unicode="&#xd3;" horiz-adv-x="1671" 
d="M723 1550l156 279h268l-215 -279h-209zM836 1237q-200 1 -340 -143t-140 -362t140 -366t340 -148q201 0 340 148t139 366t-139 362t-340 143zM1587 733q0 -317 -216 -537t-535 -220q-320 0 -536 219t-216 537t216 532t536 215q320 0 535 -214q216 -214 216 -532z" />
    <glyph glyph-name="Ocircumflex" unicode="&#xd4;" horiz-adv-x="1671" 
d="M516 1550l189 279h260l190 -279h-215l-102 166h-4l-103 -166h-215zM836 1237q-200 1 -340 -143t-140 -362t140 -366t340 -148q201 0 340 148t139 366t-139 362t-340 143zM1587 733q0 -317 -216 -537t-535 -220q-320 0 -536 219t-216 537t216 532t536 215q320 0 535 -214
q216 -214 216 -532z" />
    <glyph glyph-name="Otilde" unicode="&#xd5;" horiz-adv-x="1671" 
d="M465 1552q0 281 229 281q60 0 106 -34q46 -35 83 -67t69 -32q80 0 80 127h176q0 -281 -229 -281q-59 0 -105 34t-84 67q-36 33 -69 32q-78 0 -78 -127h-178zM836 1237q-200 1 -340 -143t-140 -362t140 -366t340 -148q201 0 340 148t139 366t-139 362t-340 143zM1587 733
q0 -317 -216 -537t-535 -220q-320 0 -536 219t-216 537t216 532t536 215q320 0 535 -214q216 -214 216 -532z" />
    <glyph glyph-name="Odieresis" unicode="&#xd6;" horiz-adv-x="1671" 
d="M549 1591v238h201v-238h-201zM926 1591v238h198v-238h-198zM836 1237q-200 1 -340 -143t-140 -362t140 -366t340 -148q201 0 340 148t139 366t-139 362t-340 143zM1587 733q0 -317 -216 -537t-535 -220q-320 0 -536 219t-216 537t216 532t536 215q320 0 535 -214
q216 -214 216 -532z" />
    <glyph glyph-name="multiply" unicode="&#xd7;" horiz-adv-x="1273" 
d="M96 141l404 445l-404 442l142 143l399 -438l399 438l142 -143l-406 -442l406 -445l-142 -141l-399 438l-399 -438z" />
    <glyph glyph-name="Oslash" unicode="&#xd8;" horiz-adv-x="1679" 
d="M362 737q0 -213 127 -360l580 803q-104 57 -227 57q-200 1 -340 -143t-140 -357zM842 217q201 1 340 149t139 366t-139 362l-584 -809q113 -68 244 -68zM90 737q0 313 216 527t536 215q199 0 375 -95l88 123l116 -80l-88 -122q123 -101 192 -249t68 -319
q0 -321 -216 -541t-535 -221q-217 0 -391 105l-97 -133l-116 80l100 137q-248 225 -248 573z" />
    <glyph glyph-name="Ugrave" unicode="&#xd9;" horiz-adv-x="1501" 
d="M651 1550l-213 279h269l155 -279h-211zM164 522v932h264v-932q0 -143 87 -224t235 -81t235 81q88 81 88 226v930h264v-932q1 -244 -161 -396t-425 -151q-263 -1 -425 151t-162 396z" />
    <glyph glyph-name="Uacute" unicode="&#xda;" horiz-adv-x="1501" 
d="M637 1550l156 279h268l-215 -279h-209zM164 522v932h264v-932q0 -143 87 -224t235 -81t235 81q88 81 88 226v930h264v-932q1 -244 -161 -396t-425 -151q-263 -1 -425 151t-162 396z" />
    <glyph glyph-name="Ucircumflex" unicode="&#xdb;" horiz-adv-x="1501" 
d="M430 1550l188 279h261l190 -279h-215l-102 166h-4l-103 -166h-215zM164 522v932h264v-932q0 -143 87 -224t235 -81t235 81q88 81 88 226v930h264v-932q1 -244 -161 -396t-425 -151q-263 -1 -425 151t-162 396z" />
    <glyph glyph-name="Udieresis" unicode="&#xdc;" horiz-adv-x="1501" 
d="M463 1591v238h201v-238h-201zM840 1591v238h198v-238h-198zM164 522v932h264v-932q0 -143 87 -224t235 -81t235 81q88 81 88 226v930h264v-932q1 -244 -161 -396t-425 -151q-263 -1 -425 151t-162 396z" />
    <glyph glyph-name="Yacute" unicode="&#xdd;" horiz-adv-x="1239" 
d="M508 1550l156 279h268l-215 -279h-209zM487 0v608l-483 846h299l227 -428q17 -31 31 -63q14 -33 28 -63t25 -64l4 -5h5q41 104 88 195l225 428h299l-483 -846v-608h-265z" />
    <glyph glyph-name="Thorn" unicode="&#xde;" horiz-adv-x="1259" 
d="M446 496h248q116 0 180 68t64 182t-64 180t-176 65h-252v-495zM184 0v1454h262v-235h297q205 1 334 -131t129 -343t-129 -344t-334 -133h-297v-268h-262z" />
    <glyph glyph-name="germandbls" unicode="&#xdf;" horiz-adv-x="1236" 
d="M143 0v1083q1 183 141 289t325 106t309 -102t122 -254q0 -63 -28 -118q-28 -56 -64 -88t-64 -74t-28 -80q0 -39 52 -84t114 -86t114 -115t52 -162q0 -157 -106 -243t-266 -86t-247 39l-26 14v221q106 -53 237 -53q63 0 105 30q41 30 41 84t-52 102t-114 87
q-61 39 -114 104q-52 66 -52 130q0 110 93 203q93 92 91 171q0 56 -45 98t-128 42t-142 -50q-59 -49 -60 -143v-1065h-260z" />
    <glyph glyph-name="agrave" unicode="&#xe0;" horiz-adv-x="1093" 
d="M444 1174l-213 278h269l155 -278h-211zM317 313q0 -55 41 -95t128 -40t156 87t69 188v24h-45q-349 0 -349 -164zM674 655h35v15q0 184 -201 184q-66 0 -138 -26t-110 -50l-39 -24l-98 186q18 14 52 36t140 58t217 35q207 -1 321 -109t114 -307v-653h-240v86l4 74h-4
q2 0 -15 -32t-69 -73q-101 -78 -241 -79q-139 -1 -243 87t-104 242t122 234q122 79 252 98q129 18 245 18z" />
    <glyph glyph-name="aacute" unicode="&#xe1;" horiz-adv-x="1093" 
d="M428 1174l156 278h268l-215 -278h-209zM317 313q0 -55 41 -95t128 -40t156 87t69 188v24h-45q-349 0 -349 -164zM674 655h35v15q0 184 -201 184q-66 0 -138 -26t-110 -50l-39 -24l-98 186q18 14 52 36t140 58t217 35q207 -1 321 -109t114 -307v-653h-240v86l4 74h-4
q2 0 -15 -32t-69 -73q-101 -78 -241 -79q-139 -1 -243 87t-104 242t122 234q122 79 252 98q129 18 245 18z" />
    <glyph glyph-name="acircumflex" unicode="&#xe2;" horiz-adv-x="1093" 
d="M221 1174l189 278h260l190 -278h-215l-102 165h-4l-103 -165h-215zM317 313q0 -55 41 -95t128 -40t156 87t69 188v24h-45q-349 0 -349 -164zM674 655h35v15q0 184 -201 184q-66 0 -138 -26t-110 -50l-39 -24l-98 186q18 14 52 36t140 58t217 35q207 -1 321 -109t114 -307
v-653h-240v86l4 74h-4q2 0 -15 -32t-69 -73q-101 -78 -241 -79q-139 -1 -243 87t-104 242t122 234q122 79 252 98q129 18 245 18z" />
    <glyph glyph-name="atilde" unicode="&#xe3;" horiz-adv-x="1093" 
d="M170 1176q0 281 229 280q59 0 105 -34t84 -66q37 -32 69 -33q80 0 80 127h176q0 -281 -229 -281q-59 0 -105 34t-83 67t-70 33q-78 0 -78 -127h-178zM317 313q0 -55 41 -95t128 -40t156 87t69 188v24h-45q-349 0 -349 -164zM674 655h35v15q0 184 -201 184q-66 0 -138 -26
t-110 -50l-39 -24l-98 186q18 14 52 36t140 58t217 35q207 -1 321 -109t114 -307v-653h-240v86l4 74h-4q2 0 -15 -32t-69 -73q-101 -78 -241 -79q-139 -1 -243 87t-104 242t122 234q122 79 252 98q129 18 245 18z" />
    <glyph glyph-name="adieresis" unicode="&#xe4;" horiz-adv-x="1093" 
d="M254 1214v238h201v-238h-201zM631 1214v238h198v-238h-198zM317 313q0 -55 41 -95t128 -40t156 87t69 188v24h-45q-349 0 -349 -164zM674 655h35v15q0 184 -201 184q-66 0 -138 -26t-110 -50l-39 -24l-98 186q18 14 52 36t140 58t217 35q207 -1 321 -109t114 -307v-653
h-240v86l4 74h-4q2 0 -15 -32t-69 -73q-101 -78 -241 -79q-139 -1 -243 87t-104 242t122 234q122 79 252 98q129 18 245 18z" />
    <glyph glyph-name="aring" unicode="&#xe5;" horiz-adv-x="1093" 
d="M540 1239q32 0 51 19q19 20 19 52t-19 51t-50 19t-51 -19t-19 -51q0 -32 18 -52q19 -19 51 -19zM540 1149q-79 0 -137 43q-57 43 -57 118q0 76 57 118t137 42t136 -43q57 -43 57 -117t-57 -118q-57 -43 -136 -43zM317 313q0 -55 41 -95t128 -40t156 87t69 188v24h-45
q-349 0 -349 -164zM674 655h35v15q0 184 -201 184q-66 0 -138 -26t-110 -50l-39 -24l-98 186q18 14 52 36t140 58t217 35q207 -1 321 -109t114 -307v-653h-240v86l4 74h-4q2 0 -15 -32t-69 -73q-101 -78 -241 -79q-139 -1 -243 87t-104 242t122 234q122 79 252 98
q129 18 245 18z" />
    <glyph glyph-name="ae" unicode="&#xe6;" horiz-adv-x="1746" 
d="M317 313q0 -57 41 -96t130 -39t157 87t68 190v22h-74q-322 0 -322 -164zM1212 866q-206 0 -247 -211h450q-2 99 -60 155t-143 56zM674 655h35v15q0 184 -203 184q-66 0 -138 -26t-110 -50l-39 -24l-96 184q18 14 50 36t137 58t214 37q244 0 340 -154h4q124 154 344 154
t342 -145t121 -367l-4 -80h-715q12 -139 98 -210t210 -70q74 1 148 29t112 57l39 26l102 -184q-87 -87 -275 -133q-71 -16 -145 -17q-299 0 -438 230h-4q-23 -58 -87 -115q-126 -113 -290 -113q-164 1 -268 89t-103 239q0 151 117 232q117 79 251 98q134 20 251 20z" />
    <glyph glyph-name="ccedilla" unicode="&#xe7;" horiz-adv-x="1118" 
d="M655 -90q150 -18 150 -168q1 -82 -63 -125t-144 -43q-81 0 -123 12l-16 2v144q43 -16 88 -17q90 1 90 57t-98 56l-43 -4l43 160q-213 29 -341 179t-128 369t156 378q157 159 411 159q121 0 221 -39t141 -78l39 -39l-114 -178q-41 41 -120 77t-153 36q-141 0 -229 -93
t-88 -231t90 -232q90 -95 235 -95q78 1 155 33t116 65l37 35l100 -185l-16 -16q-9 -10 -49 -38q-142 -101 -332 -114z" />
    <glyph glyph-name="egrave" unicode="&#xe8;" horiz-adv-x="1134" 
d="M498 1174l-213 278h268l156 -278h-211zM588 868q-94 0 -160 -58t-84 -159h457q-3 101 -61 159t-152 58zM70 528q0 236 148 388t374 153q226 0 349 -140q122 -140 122 -356l-6 -100h-721q12 -131 101 -204t212 -72q74 1 150 29t114 57l37 28l101 -186q-18 -18 -66 -48
q-161 -99 -354 -102q-252 0 -407 159q-154 158 -154 394z" />
    <glyph glyph-name="eacute" unicode="&#xe9;" horiz-adv-x="1134" 
d="M481 1174l156 278h268l-215 -278h-209zM588 868q-94 0 -160 -58t-84 -159h457q-3 101 -61 159t-152 58zM70 528q0 236 148 388t374 153q226 0 349 -140q122 -140 122 -356l-6 -100h-721q12 -131 101 -204t212 -72q74 1 150 29t114 57l37 28l101 -186q-18 -18 -66 -48
q-161 -99 -354 -102q-252 0 -407 159q-154 158 -154 394z" />
    <glyph glyph-name="ecircumflex" unicode="&#xea;" horiz-adv-x="1134" 
d="M274 1174l189 278h260l190 -278h-215l-102 165h-4l-103 -165h-215zM588 868q-94 0 -160 -58t-84 -159h457q-3 101 -61 159t-152 58zM70 528q0 236 148 388t374 153q226 0 349 -140q122 -140 122 -356l-6 -100h-721q12 -131 101 -204t212 -72q74 1 150 29t114 57l37 28
l101 -186q-18 -18 -66 -48q-161 -99 -354 -102q-252 0 -407 159q-154 158 -154 394z" />
    <glyph glyph-name="edieresis" unicode="&#xeb;" horiz-adv-x="1134" 
d="M307 1214v238h201v-238h-201zM684 1214v238h199v-238h-199zM588 868q-94 0 -160 -58t-84 -159h457q-3 101 -61 159t-152 58zM70 528q0 236 148 388t374 153q226 0 349 -140q122 -140 122 -356l-6 -100h-721q12 -131 101 -204t212 -72q74 1 150 29t114 57l37 28l101 -186
q-18 -18 -66 -48q-161 -99 -354 -102q-252 0 -407 159q-154 158 -154 394z" />
    <glyph glyph-name="igrave" unicode="&#xec;" horiz-adv-x="546" 
d="M143 0v1044h260v-1044h-260zM174 1174l-213 278h268l156 -278h-211z" />
    <glyph glyph-name="iacute" unicode="&#xed;" horiz-adv-x="546" 
d="M143 0v1044h260v-1044h-260zM160 1174l155 278h269l-215 -278h-209z" />
    <glyph glyph-name="icircumflex" unicode="&#xee;" horiz-adv-x="546" 
d="M-47 1174l188 278h260l191 -278h-215l-103 165h-4l-102 -165h-215zM143 0v1044h260v-1044h-260z" />
    <glyph glyph-name="idieresis" unicode="&#xef;" horiz-adv-x="546" 
d="M143 0v1044h260v-1044h-260zM-14 1214v238h200v-238h-200zM362 1214v238h199v-238h-199z" />
    <glyph glyph-name="eth" unicode="&#xf0;" horiz-adv-x="1198" 
d="M838 506q0 116 -66 180t-184 64t-188 -80t-70 -194t63 -198t187 -83q124 0 191 98q67 97 67 213zM68 478q0 200 130 337t351 137q57 0 109 -15t75 -30l25 -14h4q-59 131 -193 217l-379 -164l-12 154l228 100q-100 49 -236 82l72 205q258 -57 442 -170l303 129l12 -152
l-180 -80q281 -246 281 -645q0 -292 -177 -466q-132 -128 -359 -128q-226 -1 -361 151t-135 352z" />
    <glyph glyph-name="ntilde" unicode="&#xf1;" horiz-adv-x="1255" 
d="M276 1176q0 281 230 280q59 0 105 -34t83 -66t70 -33q80 0 80 127h176q0 -281 -229 -281q-59 0 -105 34t-84 67q-37 33 -70 33q-78 0 -77 -127h-179zM143 0v1044h250v-120l-4 -72h4q43 84 136 150t235 67q362 0 362 -397v-672h-258v618q0 104 -35 159q-37 54 -135 54
t-172 -58q-121 -95 -123 -294v-479h-260z" />
    <glyph glyph-name="ograve" unicode="&#xf2;" horiz-adv-x="1280" 
d="M541 1174l-213 278h268l156 -278h-211zM641 848q-129 0 -220 -92t-91 -235q0 -142 90 -233t220 -91t220 91t90 233q0 143 -90 235t-219 92zM66 522q0 238 166 392t407 155q242 0 409 -155q166 -154 166 -392t-166 -392t-408 -155q-242 1 -408 155t-166 392z" />
    <glyph glyph-name="oacute" unicode="&#xf3;" horiz-adv-x="1280" 
d="M528 1174l156 278h268l-215 -278h-209zM641 848q-129 0 -220 -92t-91 -235q0 -142 90 -233t220 -91t220 91t90 233q0 143 -90 235t-219 92zM66 522q0 238 166 392t407 155q242 0 409 -155q166 -154 166 -392t-166 -392t-408 -155q-242 1 -408 155t-166 392z" />
    <glyph glyph-name="ocircumflex" unicode="&#xf4;" horiz-adv-x="1280" 
d="M322 1174l188 278h260l191 -278h-216l-102 165h-4l-102 -165h-215zM641 848q-129 0 -220 -92t-91 -235q0 -142 90 -233t220 -91t220 91t90 233q0 143 -90 235t-219 92zM66 522q0 238 166 392t407 155q242 0 409 -155q166 -154 166 -392t-166 -392t-408 -155
q-242 1 -408 155t-166 392z" />
    <glyph glyph-name="otilde" unicode="&#xf5;" horiz-adv-x="1280" 
d="M268 1176q0 281 230 280q59 0 105 -34t83 -66t70 -33q80 0 80 127h176q0 -281 -230 -281q-59 0 -105 34t-83 67t-70 33q-78 0 -78 -127h-178zM641 848q-129 0 -220 -92t-91 -235q0 -142 90 -233t220 -91t220 91t90 233q0 143 -90 235t-219 92zM66 522q0 238 166 392
t407 155q242 0 409 -155q166 -154 166 -392t-166 -392t-408 -155q-242 1 -408 155t-166 392z" />
    <glyph glyph-name="odieresis" unicode="&#xf6;" horiz-adv-x="1280" 
d="M352 1214v238h201v-238h-201zM729 1214v238h199v-238h-199zM641 848q-129 0 -220 -92t-91 -235q0 -142 90 -233t220 -91t220 91t90 233q0 143 -90 235t-219 92zM66 522q0 238 166 392t407 155q242 0 409 -155q166 -154 166 -392t-166 -392t-408 -155q-242 1 -408 155
t-166 392z" />
    <glyph glyph-name="divide" unicode="&#xf7;" horiz-adv-x="1280" 
d="M522 55v221h234v-221h-234zM106 483v203h1068v-203h-1068zM522 895v221h234v-221h-234z" />
    <glyph glyph-name="oslash" unicode="&#xf8;" horiz-adv-x="1280" 
d="M950 511q0 132 -67 218l-365 -508q59 -25 123 -24q129 0 219 91t90 223zM641 848q-129 0 -220 -92t-91 -229q0 -136 78 -226l368 514q-66 33 -135 33zM66 509q0 251 166 405t407 155q147 0 274 -63l82 114l113 -78l-80 -112q186 -156 186 -401t-166 -399t-407 -155
q-133 0 -260 54l-84 -117l-113 80l80 110q-198 156 -198 407z" />
    <glyph glyph-name="ugrave" unicode="&#xf9;" horiz-adv-x="1247" 
d="M518 1174l-213 278h268l156 -278h-211zM129 373v671h260v-618q0 -104 36 -158t126 -55q135 0 214 102t79 250v479h260v-1044h-250v119l4 74h-4q-43 -88 -140 -153t-222 -65q-363 1 -363 398z" />
    <glyph glyph-name="uacute" unicode="&#xfa;" horiz-adv-x="1247" 
d="M504 1174l155 278h269l-215 -278h-209zM129 373v671h260v-618q0 -104 36 -158t126 -55q135 0 214 102t79 250v479h260v-1044h-250v119l4 74h-4q-43 -88 -140 -153t-222 -65q-363 1 -363 398z" />
    <glyph glyph-name="ucircumflex" unicode="&#xfb;" horiz-adv-x="1247" 
d="M297 1174l188 278h260l191 -278h-215l-103 165h-4l-102 -165h-215zM129 373v671h260v-618q0 -104 36 -158t126 -55q135 0 214 102t79 250v479h260v-1044h-250v119l4 74h-4q-43 -88 -140 -153t-222 -65q-363 1 -363 398z" />
    <glyph glyph-name="udieresis" unicode="&#xfc;" horiz-adv-x="1247" 
d="M330 1214v238h200v-238h-200zM707 1214v238h198v-238h-198zM129 373v671h260v-618q0 -104 36 -158t126 -55q135 0 214 102t79 250v479h260v-1044h-250v119l4 74h-4q-43 -88 -140 -153t-222 -65q-363 1 -363 398z" />
    <glyph glyph-name="yacute" unicode="&#xfd;" horiz-adv-x="1067" 
d="M424 1174l156 278h268l-215 -278h-209zM205 -211q123 0 180 135l39 92l-440 1028h292l220 -602l39 -141h4q16 82 34 137l205 606h285l-467 -1202q-52 -136 -152 -204t-225 -68q-55 0 -109 16t-81 33l-27 19l86 194q57 -43 117 -43z" />
    <glyph glyph-name="thorn" unicode="&#xfe;" horiz-adv-x="1249" 
d="M395 528q0 -160 72 -246q73 -86 189 -87q116 0 189 92t73 235q0 142 -71 234t-187 92t-190 -80q-75 -80 -75 -240zM1048 130q-132 -154 -336 -155q-204 0 -309 142h-4q4 -37 4 -90v-437h-260v1864h260v-446l-4 -86h4q111 147 315 147t333 -155q129 -154 129 -392
t-132 -392z" />
    <glyph glyph-name="ydieresis" unicode="&#xff;" horiz-adv-x="1067" 
d="M250 1214v238h201v-238h-201zM627 1214v238h198v-238h-198zM205 -211q123 0 180 135l39 92l-440 1028h292l220 -602l39 -141h4q16 82 34 137l205 606h285l-467 -1202q-52 -136 -152 -204t-225 -68q-55 0 -109 16t-81 33l-27 19l86 194q57 -43 117 -43z" />
    <glyph glyph-name="Amacron" unicode="&#x100;" horiz-adv-x="1304" 
d="M385 1604v178h537v-178h-537zM655 1202h-4q-33 -143 -61 -225l-129 -389h381l-129 389zM1030 0l-123 373h-510l-123 -373h-272l512 1454h277l512 -1454h-273z" />
    <glyph glyph-name="amacron" unicode="&#x101;" horiz-adv-x="1093" 
d="M274 1227v178h537v-178h-537zM317 313q0 -55 41 -95t128 -40t156 87t69 188v24h-45q-349 0 -349 -164zM674 655h35v15q0 184 -201 184q-66 0 -138 -26t-110 -50l-39 -24l-98 186q18 14 52 36t140 58t217 35q207 -1 321 -109t114 -307v-653h-240v86l4 74h-4q2 0 -15 -32
t-69 -73q-101 -78 -241 -79q-139 -1 -243 87t-104 242t122 234q122 79 252 98q129 18 245 18z" />
    <glyph glyph-name="Abreve" unicode="&#x102;" horiz-adv-x="1304" 
d="M956 1804q0 -122 -88 -192t-216 -70t-216 70t-88 192v25h184v-25q0 -59 35 -90t84 -31t85 32t36 91v23h184v-25zM655 1202h-4q-33 -143 -61 -225l-129 -389h381l-129 389zM1030 0l-123 373h-510l-123 -373h-272l512 1454h277l512 -1454h-273z" />
    <glyph glyph-name="abreve" unicode="&#x103;" horiz-adv-x="1093" 
d="M844 1427q0 -123 -88 -193t-216 -69q-128 0 -216 70t-88 192v25h184v-25q0 -59 35 -90t84 -31t85 32t35 92v22h185v-25zM317 313q0 -55 41 -95t128 -40t156 87t69 188v24h-45q-349 0 -349 -164zM674 655h35v15q0 184 -201 184q-66 0 -138 -26t-110 -50l-39 -24l-98 186
q18 14 52 36t140 58t217 35q207 -1 321 -109t114 -307v-653h-240v86l4 74h-4q2 0 -15 -32t-69 -73q-101 -78 -241 -79q-139 -1 -243 87t-104 242t122 234q122 79 252 98q129 18 245 18z" />
    <glyph glyph-name="Aogonek" unicode="&#x104;" horiz-adv-x="1304" 
d="M655 1202h-4q-35 -143 -61 -225l-129 -389h381l-129 389zM1188 -160q0 -29 24 -47t50 -22l26 -4l-63 -193q-25 0 -78 16t-86 36t-61 58t-27 87q0 115 133 225v4h-76l-123 373h-510l-123 -373h-272l512 1454h277l512 -1454q-115 -96 -115 -160z" />
    <glyph glyph-name="aogonek" unicode="&#x105;" horiz-adv-x="1093" 
d="M317 313q0 -55 41 -95t128 -40t156 87t69 188v24h-45q-349 0 -349 -164zM674 655h35v15q0 184 -201 184q-66 0 -138 -26t-110 -50l-39 -24l-98 186q18 14 52 36t140 58t217 35q207 -1 321 -109t114 -307v-653q-115 -96 -115 -160q0 -29 25 -47t49 -22l26 -4l-61 -193
q-25 0 -78 16t-86 36t-61 58t-27 87q0 111 133 225v4h-45v86l4 74h-4q2 0 -15 -32t-69 -73q-101 -78 -241 -79q-139 -1 -243 87t-104 242t122 234q122 79 252 98q129 18 245 18z" />
    <glyph glyph-name="Cacute" unicode="&#x106;" horiz-adv-x="1466" 
d="M702 1550l156 279h268l-215 -279h-209zM836 -25q-330 0 -541 217q-211 218 -211 538t214 534t533 215q197 0 332 -65q136 -65 185 -114l20 -20l-127 -197q-18 16 -52 42t-138 69t-207 43q-224 0 -356 -144q-132 -143 -132 -357t136 -366t354 -153q171 0 345 119
q38 27 58 45l19 20l139 -190q-24 -30 -86 -76q-63 -47 -125 -78t-158 -57q-98 -26 -202 -25z" />
    <glyph glyph-name="cacute" unicode="&#x107;" horiz-adv-x="1116" 
d="M483 1174l156 278h268l-215 -278h-209zM68 520q0 231 156 390q157 159 411 159q121 0 221 -39t139 -78l41 -39l-114 -178q-41 41 -120 77t-153 36q-141 0 -229 -93t-88 -231t90 -232q90 -95 235 -95q78 1 155 33t114 65l39 35l100 -185q-167 -167 -425 -168
q-259 -2 -416 155q-156 157 -156 388z" />
    <glyph glyph-name="Ccircumflex" unicode="&#x108;" horiz-adv-x="1466" 
d="M496 1550l188 279h260l191 -279h-215l-103 166h-4l-102 -166h-215zM836 -25q-330 0 -541 217q-211 218 -211 538t214 534t533 215q197 0 332 -65q136 -65 185 -114l20 -20l-127 -197q-18 16 -52 42t-138 69t-207 43q-224 0 -356 -144q-132 -143 -132 -357t136 -366
t354 -153q171 0 345 119q38 27 58 45l19 20l139 -190q-24 -30 -86 -76q-63 -47 -125 -78t-158 -57q-98 -26 -202 -25z" />
    <glyph glyph-name="ccircumflex" unicode="&#x109;" horiz-adv-x="1116" 
d="M276 1174l189 278h260l190 -278h-215l-102 165h-4l-102 -165h-216zM68 520q0 231 156 390q157 159 411 159q121 0 221 -39t139 -78l41 -39l-114 -178q-41 41 -120 77t-153 36q-141 0 -229 -93t-88 -231t90 -232q90 -95 235 -95q78 1 155 33t114 65l39 35l100 -185
q-167 -167 -425 -168q-259 -2 -416 155q-156 157 -156 388z" />
    <glyph glyph-name="Cdotaccent" unicode="&#x10a;" horiz-adv-x="1466" 
d="M705 1602v227h221v-227h-221zM836 -25q-330 0 -541 217q-211 218 -211 538t214 534t533 215q197 0 332 -65q136 -65 185 -114l20 -20l-127 -197q-18 16 -52 42t-138 69t-207 43q-224 0 -356 -144q-132 -143 -132 -357t136 -366t354 -153q171 0 345 119q38 27 58 45l19 20
l139 -190q-24 -30 -86 -76q-63 -47 -125 -78t-158 -57q-98 -26 -202 -25z" />
    <glyph glyph-name="cdotaccent" unicode="&#x10b;" horiz-adv-x="1116" 
d="M487 1225v227h222v-227h-222zM68 520q0 231 156 390q157 159 411 159q121 0 221 -39t139 -78l41 -39l-114 -178q-41 41 -120 77t-153 36q-141 0 -229 -93t-88 -231t90 -232q90 -95 235 -95q78 1 155 33t114 65l39 35l100 -185q-167 -167 -425 -168q-259 -2 -416 155
q-156 157 -156 388z" />
    <glyph glyph-name="Ccaron" unicode="&#x10c;" horiz-adv-x="1466" 
d="M684 1550l-188 279h215l102 -166h4l103 166h215l-191 -279h-260zM836 -25q-330 0 -541 217q-211 218 -211 538t214 534t533 215q197 0 332 -65q136 -65 185 -114l20 -20l-127 -197q-18 16 -52 42t-138 69t-207 43q-224 0 -356 -144q-132 -143 -132 -357t136 -366
t354 -153q171 0 345 119q38 27 58 45l19 20l139 -190q-24 -30 -86 -76q-63 -47 -125 -78t-158 -57q-98 -26 -202 -25z" />
    <glyph glyph-name="ccaron" unicode="&#x10d;" horiz-adv-x="1116" 
d="M465 1174l-189 278h216l102 -166h4l102 166h215l-190 -278h-260zM68 520q0 231 156 390q157 159 411 159q121 0 221 -39t139 -78l41 -39l-114 -178q-41 41 -120 77t-153 36q-141 0 -229 -93t-88 -231t90 -232q90 -95 235 -95q78 1 155 33t114 65l39 35l100 -185
q-167 -167 -425 -168q-259 -2 -416 155q-156 157 -156 388z" />
    <glyph glyph-name="Dcaron" unicode="&#x10e;" horiz-adv-x="1513" 
d="M580 1550l-189 279h215l103 -166h4l102 166h215l-190 -279h-260zM449 227h217q225 0 354 130t129 370t-130 370t-353 130h-217v-1000zM184 0v1454h496q340 0 541 -192t201 -533t-202 -535q-200 -194 -540 -194h-496z" />
    <glyph glyph-name="dcaron" unicode="&#x10f;" horiz-adv-x="1312" 
d="M1448 1326q0 -71 -53 -181h-193q42 109 42 176t-25 133h215q14 -57 14 -128zM592 195q114 0 188 83q76 83 76 230q0 146 -69 242t-187 96t-192 -87t-74 -235t72 -239q72 -90 186 -90zM848 995v459h260v-1454h-246v86l4 68h-4q-12 -25 -43 -59q-106 -117 -284 -120
q-211 -1 -337 151t-126 397t132 396t340 151t302 -134h4q-2 27 -2 59z" />
    <glyph glyph-name="Dcroat" unicode="&#x110;" horiz-adv-x="1552" 
d="M487 227h218q225 0 354 130t129 370t-130 370t-353 130h-218v-396h271v-215h-271v-389zM104 616v215h119v623h496q340 0 541 -192q200 -192 200 -533t-200 -535t-541 -194h-496v616h-119z" />
    <glyph glyph-name="dcroat" unicode="&#x111;" horiz-adv-x="1251" 
d="M592 195q114 0 188 83q76 83 76 230q0 146 -69 242t-187 96t-192 -87t-74 -235t72 -239q72 -90 186 -90zM848 995v150h-262v155h262v154h260v-154h147v-155h-147v-1145h-246v86l4 68h-4q-12 -25 -43 -59q-106 -117 -284 -120q-211 0 -337 152q-126 153 -126 397t132 395
t340 151t302 -134h4q-2 27 -2 59z" />
    <glyph glyph-name="Emacron" unicode="&#x112;" horiz-adv-x="1177" 
d="M373 1604v178h536v-178h-536zM184 0v1454h871v-227h-606v-381h489v-228h-489v-391h638v-227h-903z" />
    <glyph glyph-name="emacron" unicode="&#x113;" horiz-adv-x="1134" 
d="M328 1227v178h536v-178h-536zM588 868q-94 0 -160 -58t-84 -159h457q-3 101 -61 159t-152 58zM70 528q0 236 148 388t374 153q226 0 349 -140q122 -140 122 -356l-6 -100h-721q12 -131 101 -204t212 -72q74 1 150 29t114 57l37 28l101 -186q-18 -18 -66 -48
q-161 -99 -354 -102q-252 0 -407 159q-154 158 -154 394z" />
    <glyph glyph-name="Ebreve" unicode="&#x114;" horiz-adv-x="1177" 
d="M944 1804q0 -122 -88 -192t-216 -70t-216 70t-88 192v25h184v-25q0 -59 35 -90t84 -31t85 32t36 91v23h184v-25zM184 0v1454h871v-227h-606v-381h489v-228h-489v-391h638v-227h-903z" />
    <glyph glyph-name="ebreve" unicode="&#x115;" horiz-adv-x="1134" 
d="M899 1427q0 -123 -88 -193t-216 -69q-128 0 -216 70t-88 192v25h184v-25q0 -59 35 -90t84 -31t85 32t36 92v22h184v-25zM588 868q-94 0 -160 -58t-84 -159h457q-3 101 -61 159t-152 58zM70 528q0 236 148 388t374 153q226 0 349 -140q122 -140 122 -356l-6 -100h-721
q12 -131 101 -204t212 -72q74 1 150 29t114 57l37 28l101 -186q-18 -18 -66 -48q-161 -99 -354 -102q-252 0 -407 159q-154 158 -154 394z" />
    <glyph glyph-name="Edotaccent" unicode="&#x116;" horiz-adv-x="1177" 
d="M530 1602v227h222v-227h-222zM184 0v1454h871v-227h-606v-381h489v-228h-489v-391h638v-227h-903z" />
    <glyph glyph-name="edotaccent" unicode="&#x117;" horiz-adv-x="1134" 
d="M485 1225v227h222v-227h-222zM588 868q-94 0 -160 -58t-84 -159h457q-3 101 -61 159t-152 58zM70 528q0 236 148 388t374 153q226 0 349 -140q122 -140 122 -356l-6 -100h-721q12 -131 101 -204t212 -72q74 1 150 29t114 57l37 28l101 -186q-18 -18 -66 -48
q-161 -99 -354 -102q-252 0 -407 159q-154 158 -154 394z" />
    <glyph glyph-name="Eogonek" unicode="&#x118;" horiz-adv-x="1177" 
d="M184 0v1454h871v-227h-606v-381h489v-228h-489v-391h638v-227q-115 -96 -114 -160q-1 -29 25 -47t51 -22l24 -4l-63 -193q-23 0 -76 16t-87 36t-61 58t-26 87q0 117 137 225v4h-713z" />
    <glyph glyph-name="eogonek" unicode="&#x119;" horiz-adv-x="1136" 
d="M588 868q-94 0 -160 -58t-84 -159h457q-3 101 -61 159t-152 58zM70 528q0 236 148 388t374 153q226 0 349 -140q122 -140 122 -356l-6 -100h-721q12 -135 100 -206t213 -70q74 1 150 29t114 57l37 28l101 -184q-17 -19 -93 -73t-118 -105t-43 -95t25 -61q26 -18 50 -22
l25 -4l-63 -193q-23 0 -76 16t-87 36t-61 58t-26 87q0 104 118 206v5q-37 -6 -71 -7q-252 0 -407 159q-154 158 -154 394z" />
    <glyph glyph-name="Ecaron" unicode="&#x11a;" horiz-adv-x="1177" 
d="M510 1550l-188 279h215l102 -166h4l102 166h216l-191 -279h-260zM184 0v1454h871v-227h-606v-381h489v-228h-489v-391h638v-227h-903z" />
    <glyph glyph-name="ecaron" unicode="&#x11b;" horiz-adv-x="1134" 
d="M463 1174l-189 278h215l103 -166h4l102 166h215l-190 -278h-260zM588 868q-94 0 -160 -58t-84 -159h457q-3 101 -61 159t-152 58zM70 528q0 236 148 388t374 153q226 0 349 -140q122 -140 122 -356l-6 -100h-721q12 -131 101 -204t212 -72q74 1 150 29t114 57l37 28
l101 -186q-18 -18 -66 -48q-161 -99 -354 -102q-252 0 -407 159q-154 158 -154 394z" />
    <glyph glyph-name="Gcircumflex" unicode="&#x11c;" horiz-adv-x="1556" 
d="M496 1550l188 279h260l191 -279h-215l-103 166h-4l-102 -166h-215zM86 720q0 326 214 542t536 217q196 0 329 -59t191 -105l20 -21l-131 -196q-18 16 -50 39t-133 61t-204 39q-236 0 -368 -142q-132 -141 -132 -365t140 -368t348 -145q98 0 189 38t132 77l43 37v170h-223
v227h461v-766h-225v70l2 61h-4q-14 -14 -63 -48q-150 -105 -359 -108q-297 0 -505 210q-208 209 -208 535z" />
    <glyph glyph-name="gcircumflex" unicode="&#x11d;" horiz-adv-x="1236" 
d="M281 1174l188 278h260l191 -278h-215l-103 165h-4l-102 -165h-215zM590 240q114 0 182 72t68 235q0 301 -258 301q-117 0 -182 -79q-64 -79 -64 -216t70 -225t184 -88zM526 -209q144 -1 226 61t82 193v61l4 56h-4q-94 -142 -301 -142t-333 153t-126 377t123 372t340 147
q167 0 265 -86q26 -21 44 -47h6q-2 12 -2 29v79h244v-981q0 -129 -47 -227q-83 -174 -303 -238q-95 -28 -201 -28q-201 0 -371 90l78 199q132 -68 276 -68z" />
    <glyph glyph-name="Gbreve" unicode="&#x11e;" horiz-adv-x="1556" 
d="M1118 1804q0 -122 -88 -192t-216 -70t-216 70t-88 192v25h184v-25q0 -59 35 -90t84 -31t85 32t36 91v23h184v-25zM86 720q0 326 214 542t536 217q196 0 329 -59t191 -105l20 -21l-131 -196q-18 16 -50 39t-133 61t-204 39q-236 0 -368 -142q-132 -141 -132 -365t140 -368
t348 -145q98 0 189 38t132 77l43 37v170h-223v227h461v-766h-225v70l2 61h-4q-14 -14 -63 -48q-150 -105 -359 -108q-297 0 -505 210q-208 209 -208 535z" />
    <glyph glyph-name="gbreve" unicode="&#x11f;" horiz-adv-x="1236" 
d="M903 1427q0 -123 -88 -193t-216 -69q-128 0 -216 70t-88 192v25h184v-25q0 -59 35 -90t84 -31t85 32t36 92v22h184v-25zM590 240q114 0 182 72t68 235q0 301 -258 301q-117 0 -182 -79q-64 -79 -64 -216t70 -225t184 -88zM526 -209q144 -1 226 61t82 193v61l4 56h-4
q-94 -142 -301 -142t-333 153t-126 377t123 372t340 147q167 0 265 -86q26 -21 44 -47h6q-2 12 -2 29v79h244v-981q0 -129 -47 -227q-83 -174 -303 -238q-95 -28 -201 -28q-201 0 -371 90l78 199q132 -68 276 -68z" />
    <glyph glyph-name="Gdotaccent" unicode="&#x120;" horiz-adv-x="1556" 
d="M705 1602v227h221v-227h-221zM86 720q0 326 214 542t536 217q196 0 329 -59t191 -105l20 -21l-131 -196q-18 16 -50 39t-133 61t-204 39q-236 0 -368 -142q-132 -141 -132 -365t140 -368t348 -145q98 0 189 38t132 77l43 37v170h-223v227h461v-766h-225v70l2 61h-4
q-14 -14 -63 -48q-150 -105 -359 -108q-297 0 -505 210q-208 209 -208 535z" />
    <glyph glyph-name="gdotaccent" unicode="&#x121;" horiz-adv-x="1236" 
d="M489 1225v227h222v-227h-222zM590 240q114 0 182 72t68 235q0 301 -258 301q-117 0 -182 -79q-64 -79 -64 -216t70 -225t184 -88zM526 -209q144 -1 226 61t82 193v61l4 56h-4q-94 -142 -301 -142t-333 153t-126 377t123 372t340 147q167 0 265 -86q26 -21 44 -47h6
q-2 12 -2 29v79h244v-981q0 -129 -47 -227q-83 -174 -303 -238q-95 -28 -201 -28q-201 0 -371 90l78 199q132 -68 276 -68z" />
    <glyph glyph-name="Gcommaaccent" unicode="&#x122;" horiz-adv-x="1556" 
d="M713 -246q0 67 -25 133h215q15 -57 15 -127t-54 -182h-192q41 109 41 176zM86 720q0 326 214 542t536 217q196 0 329 -59t191 -105l20 -21l-131 -196q-18 16 -50 39t-133 61t-204 39q-236 0 -368 -142q-132 -141 -132 -365t140 -368t348 -145q98 0 189 38t132 77l43 37
v170h-223v227h461v-766h-225v70l2 61h-4q-14 -14 -63 -48q-150 -105 -359 -108q-297 0 -505 210q-208 209 -208 535z" />
    <glyph glyph-name="gcommaaccent" unicode="&#x123;" horiz-adv-x="1236" 
d="M688 1278q0 -64 25 -127h-215q-14 55 -14 125t53 176h190q-39 -110 -39 -174zM590 240q114 0 182 72t68 235q0 301 -258 301q-117 0 -182 -79q-64 -79 -64 -216t70 -225t184 -88zM526 -209q144 -1 226 61t82 193v61l4 56h-4q-94 -142 -301 -142t-333 153t-126 377
t123 372t340 147q167 0 265 -86q26 -21 44 -47h6q-2 12 -2 29v79h244v-981q0 -129 -47 -227q-83 -174 -303 -238q-95 -28 -201 -28q-201 0 -371 90l78 199q132 -68 276 -68z" />
    <glyph glyph-name="Hcircumflex" unicode="&#x124;" horiz-adv-x="1562" 
d="M461 1550l188 279h260l191 -279h-215l-103 166h-4l-102 -166h-215zM184 0v1454h265v-616h665v616h264v-1454h-264v610h-665v-610h-265z" />
    <glyph glyph-name="hcircumflex" unicode="&#x125;" horiz-adv-x="1255" 
d="M-45 1550l188 279h260l191 -279h-215l-103 166h-4l-102 -166h-215zM143 0v1454h260v-504l-4 -88h4q43 84 139 146t222 61q362 0 362 -397v-672h-258v618q0 104 -35 159q-35 54 -133 54t-174 -60q-121 -95 -123 -292v-479h-260z" />
    <glyph glyph-name="Hbar" unicode="&#x126;" horiz-adv-x="1648" 
d="M492 838h663v217h-663v-217zM227 0v1055h-125v170h125v229h265v-229h663v229h266v-229h127v-170h-127v-1055h-266v610h-663v-610h-265z" />
    <glyph glyph-name="hbar" unicode="&#x127;" horiz-adv-x="1255" 
d="M8 1145v155h135v154h260v-154h273v-155h-273v-195l-4 -88h4q43 84 139 146t222 61q362 0 362 -397v-672h-258v618q0 104 -35 159q-35 54 -133 54t-174 -60q-121 -95 -123 -292v-479h-260v1145h-135z" />
    <glyph glyph-name="Itilde" unicode="&#x128;" horiz-adv-x="632" 
d="M-53 1552q0 281 229 281q60 0 106 -34q46 -35 83 -67t69 -32q80 0 80 127h176q0 -281 -229 -281q-59 0 -105 34t-84 67q-37 33 -69 32q-78 0 -78 -127h-178zM184 0v1454h265v-1454h-265z" />
    <glyph glyph-name="itilde" unicode="&#x129;" horiz-adv-x="546" 
d="M143 0v1044h260v-1044h-260zM-98 1176q0 281 229 280q59 0 105 -34t84 -66q36 -32 69 -33q80 0 80 127h176q0 -281 -229 -281q-60 0 -106 34t-83 67t-69 33q-78 0 -78 -127h-178z" />
    <glyph glyph-name="Imacron" unicode="&#x12a;" horiz-adv-x="632" 
d="M51 1604v178h537v-178h-537zM184 0v1454h265v-1454h-265z" />
    <glyph glyph-name="imacron" unicode="&#x12b;" horiz-adv-x="546" 
d="M143 0v1044h260v-1044h-260zM6 1227v178h537v-178h-537z" />
    <glyph glyph-name="Ibreve" unicode="&#x12c;" horiz-adv-x="632" 
d="M623 1804q-1 -122 -89 -192t-216 -70t-216 70t-88 192v25h185v-25q1 -59 35 -90t83 -31t85 32t36 91v23h185v-25zM184 0v1454h265v-1454h-265z" />
    <glyph glyph-name="ibreve" unicode="&#x12d;" horiz-adv-x="546" 
d="M143 0v1044h260v-1044h-260zM578 1427q0 -123 -88 -193t-217 -69q-128 0 -216 70t-88 192v25h185v-25q0 -59 34 -90t84 -31q49 0 85 32t36 92v22h185v-25z" />
    <glyph glyph-name="Iogonek" unicode="&#x12e;" horiz-adv-x="632" 
d="M184 0v1454h265v-1454q-109 -96 -109 -160q0 -29 25 -47t49 -22l26 -4l-61 -193q-25 0 -78 16t-86 36t-61 58t-27 87q0 125 127 225v4h-70z" />
    <glyph glyph-name="iogonek" unicode="&#x12f;" horiz-adv-x="546" 
d="M143 1223v231h258v-231h-258zM143 0v1044h260v-1044q-109 -92 -108 -160q1 -29 25 -47t49 -22l26 -4l-63 -193q-23 0 -76 16t-87 36q-35 20 -61 58t-26 87q0 125 127 225v4h-66z" />
    <glyph glyph-name="Idotaccent" unicode="&#x130;" horiz-adv-x="632" 
d="M209 1602v227h221v-227h-221zM184 0v1454h265v-1454h-265z" />
    <glyph glyph-name="dotlessi" unicode="&#x131;" horiz-adv-x="546" 
d="M143 0v1044h260v-1044h-260z" />
    <glyph glyph-name="IJ" unicode="&#x132;" horiz-adv-x="1316" 
d="M184 0v1454h265v-1454h-265zM616 231q92 0 179 59q88 59 88 226v938h268v-942q0 -156 -48 -264t-131 -161q-152 -95 -356 -95v239z" />
    <glyph glyph-name="ij" unicode="&#x133;" horiz-adv-x="1101" 
d="M698 1044h260v-1075q0 -100 -32 -175t-79 -115q-46 -39 -128 -71t-197 -32l-80 6v219q18 -4 66 -4q48 1 98 25q94 46 92 168v1054zM698 1223v231h258v-231h-258zM143 0v1044h260v-1044h-260zM143 1223v231h258v-231h-258z" />
    <glyph glyph-name="Jcircumflex" unicode="&#x134;" horiz-adv-x="1120" 
d="M309 1550l189 279h260l190 -279h-215l-102 166h-4l-103 -166h-215zM49 430v84h262v-68q-1 -119 55 -174t138 -55t134 53t52 164v793h-375v227h639v-1024q0 -223 -134 -339t-319 -116t-319 117q-133 117 -133 338z" />
    <glyph glyph-name="jcircumflex" unicode="&#x135;" horiz-adv-x="546" 
d="M-39 1174l191 280h237l191 -280h-205l-103 167h-4l-102 -167h-205zM143 1044h260v-1075q-1 -100 -33 -175t-78 -115q-46 -39 -128 -71t-197 -32l-80 6v219q18 -4 66 -4q48 1 98 25q94 46 92 168v1054z" />
    <glyph glyph-name="Kcommaaccent" unicode="&#x136;" horiz-adv-x="1325" 
d="M592 -246q0 67 -25 133h215q14 -57 14 -127t-53 -182h-192q41 109 41 176zM184 0v1454h265v-592h188l342 592h287l-412 -692v-4l436 -758h-297l-356 635h-188v-635h-265z" />
    <glyph glyph-name="kcommaaccent" unicode="&#x137;" horiz-adv-x="1130" 
d="M500 -246q0 67 -25 133h215q14 -57 14 -127t-53 -182h-192q41 109 41 176zM143 0v1454h260v-778h129l252 368h289l-330 -466v-5l371 -573h-299l-276 457h-136v-457h-260z" />
    <glyph glyph-name="kgreenlandic" unicode="&#x138;" horiz-adv-x="1132" 
d="M143 0v1044h260v-393h127l265 393h290l-342 -489v-4l357 -551h-305l-258 432h-134v-432h-260z" />
    <glyph glyph-name="Lacute" unicode="&#x139;" horiz-adv-x="1103" 
d="M205 1550l155 279h269l-215 -279h-209zM184 0v1454h265v-1227h628v-227h-893z" />
    <glyph glyph-name="lacute" unicode="&#x13a;" horiz-adv-x="581" 
d="M147 1550l156 279h268l-215 -279h-209zM440 -10q-312 0 -311 336v1128h258v-1089q0 -82 26 -113t81 -31l38 2v-227q-40 -6 -92 -6z" />
    <glyph glyph-name="Lcommaaccent" unicode="&#x13b;" horiz-adv-x="1103" 
d="M555 -246q0 67 -25 133h215q15 -57 15 -127t-53 -182h-193q41 109 41 176zM184 0v1454h265v-1227h628v-227h-893z" />
    <glyph glyph-name="lcommaaccent" unicode="&#x13c;" horiz-adv-x="581" 
d="M250 -246q0 67 -25 133h215q14 -57 14 -127t-53 -182h-192q41 109 41 176zM440 -10q-312 0 -311 336v1128h258v-1089q0 -82 26 -113t81 -31l38 2v-227q-40 -6 -92 -6z" />
    <glyph glyph-name="Lcaron" unicode="&#x13d;" horiz-adv-x="1103" 
d="M635 1321q0 67 -25 133h215q15 -57 15 -128t-54 -181h-192q41 109 41 176zM184 0v1454h265v-1227h628v-227h-893z" />
    <glyph glyph-name="lcaron" unicode="&#x13e;" horiz-adv-x="643" 
d="M729 1326q0 -71 -53 -181h-193q41 109 41 176t-24 133h215q14 -57 14 -128zM440 -10q-312 0 -311 336v1128h258v-1089q0 -82 26 -113t81 -31l38 2v-227q-40 -6 -92 -6z" />
    <glyph glyph-name="Ldot" unicode="&#x13f;" horiz-adv-x="1103" 
d="M668 662v258h252v-258h-252zM184 0v1454h265v-1227h628v-227h-893z" />
    <glyph glyph-name="ldot" unicode="&#x140;" horiz-adv-x="802" 
d="M545 662v258h252v-258h-252zM440 -10q-312 0 -311 336v1128h258v-1089q0 -82 26 -113t81 -31l38 2v-227q-40 -6 -92 -6z" />
    <glyph glyph-name="Lslash" unicode="&#x141;" horiz-adv-x="1150" 
d="M231 1454h265v-510l217 125v-254l-217 -125v-463h628v-227h-893v539l-114 -66v254l114 66v661z" />
    <glyph glyph-name="lslash" unicode="&#x142;" horiz-adv-x="692" 
d="M203 1454h258v-477l157 92v-254l-157 -92v-358q-1 -82 25 -113t81 -31l39 2v-227q-39 -6 -92 -6q-115 0 -203 54q-110 69 -108 282v249l-131 -75v254l131 75v625z" />
    <glyph glyph-name="Nacute" unicode="&#x143;" horiz-adv-x="1556" 
d="M668 1550l155 279h269l-215 -279h-209zM184 0v1454h265l550 -840q51 -76 103 -188l18 -37h4q-14 139 -14 225v840h262v-1454h-262l-551 838q-41 61 -102 186l-19 39h-4q14 -139 15 -225v-838h-265z" />
    <glyph glyph-name="nacute" unicode="&#x144;" horiz-adv-x="1255" 
d="M537 1174l155 278h269l-216 -278h-208zM143 0v1044h250v-120l-4 -72h4q43 84 136 150t235 67q362 0 362 -397v-672h-258v618q0 104 -35 159q-37 54 -135 54t-172 -58q-121 -95 -123 -294v-479h-260z" />
    <glyph glyph-name="Ncommaaccent" unicode="&#x145;" horiz-adv-x="1556" 
d="M897 -240q0 -70 -53 -182h-193q41 109 41 176t-24 133h215q14 -57 14 -127zM184 0v1454h265l550 -840q51 -76 103 -188l18 -37h4q-14 139 -14 225v840h262v-1454h-262l-551 838q-41 61 -102 186l-19 39h-4q14 -139 15 -225v-838h-265z" />
    <glyph glyph-name="ncommaaccent" unicode="&#x146;" horiz-adv-x="1255" 
d="M543 -246q0 67 -25 133h215q15 -57 15 -127t-54 -182h-192q41 109 41 176zM143 0v1044h250v-120l-4 -72h4q43 84 136 150t235 67q362 0 362 -397v-672h-258v618q0 104 -35 159q-37 54 -135 54t-172 -58q-121 -95 -123 -294v-479h-260z" />
    <glyph glyph-name="Ncaron" unicode="&#x147;" horiz-adv-x="1556" 
d="M649 1550l-188 279h215l102 -166h4l103 166h215l-191 -279h-260zM184 0v1454h265l550 -840q51 -76 103 -188l18 -37h4q-14 139 -14 225v840h262v-1454h-262l-551 838q-41 61 -102 186l-19 39h-4q14 -139 15 -225v-838h-265z" />
    <glyph glyph-name="ncaron" unicode="&#x148;" horiz-adv-x="1255" 
d="M518 1174l-188 278h215l102 -166h4l103 166h215l-191 -278h-260zM143 0v1044h250v-120l-4 -72h4q43 84 136 150t235 67q362 0 362 -397v-672h-258v618q0 104 -35 159q-37 54 -135 54t-172 -58q-121 -95 -123 -294v-479h-260z" />
    <glyph glyph-name="napostrophe" unicode="&#x149;" horiz-adv-x="1255" 
d="M207 1326q0 -71 -53 -181h-193q41 109 41 176t-25 133h216q14 -57 14 -128zM143 0v1044h250v-120l-4 -72h4q43 84 136 150t235 67q362 0 362 -397v-672h-258v618q0 104 -35 159q-37 54 -135 54t-172 -58q-121 -95 -123 -294v-479h-260z" />
    <glyph glyph-name="Eng" unicode="&#x14a;" horiz-adv-x="1556" 
d="M184 0v1454h265l550 -840q51 -76 103 -188l18 -37h4q-14 139 -14 225v840h262v-1366q0 -398 -340 -485q-86 -23 -186 -23v240q82 0 162 50t92 146l-541 822q-44 68 -102 188l-19 37h-4q14 -139 15 -225v-838h-265z" />
    <glyph glyph-name="eng" unicode="&#x14b;" horiz-adv-x="1257" 
d="M143 0v1044h252v-147l-4 -45h4q43 86 135 152t234 65q365 0 364 -397v-707q0 -100 -32 -175t-79 -115q-46 -39 -128 -71t-197 -32l-80 6v219q18 -2 45 -2q211 0 211 191v632q0 104 -35 159q-36 54 -133 54q-96 0 -172 -58q-122 -94 -125 -294v-479h-260z" />
    <glyph glyph-name="Omacron" unicode="&#x14c;" horiz-adv-x="1671" 
d="M569 1604v178h537v-178h-537zM836 1237q-200 1 -340 -143t-140 -362t140 -366t340 -148q201 0 340 148t139 366t-139 362t-340 143zM1587 733q0 -317 -216 -537t-535 -220q-320 0 -536 219t-216 537t216 532t536 215q320 0 535 -214q216 -214 216 -532z" />
    <glyph glyph-name="omacron" unicode="&#x14d;" horiz-adv-x="1280" 
d="M373 1227v178h536v-178h-536zM641 848q-129 0 -220 -92t-91 -235q0 -142 90 -233t220 -91t220 91t90 233q0 143 -90 235t-219 92zM66 522q0 238 166 392t407 155q242 0 409 -155q166 -154 166 -392t-166 -392t-408 -155q-242 1 -408 155t-166 392z" />
    <glyph glyph-name="Obreve" unicode="&#x14e;" horiz-adv-x="1671" 
d="M1139 1804q0 -122 -88 -192t-216 -70t-217 70q-88 70 -88 192v25h185v-25q0 -59 35 -90t84 -31t85 32t35 91v23h185v-25zM836 1237q-200 1 -340 -143t-140 -362t140 -366t340 -148q201 0 340 148t139 366t-139 362t-340 143zM1587 733q0 -317 -216 -537t-535 -220
q-320 0 -536 219t-216 537t216 532t536 215q320 0 535 -214q216 -214 216 -532z" />
    <glyph glyph-name="obreve" unicode="&#x14f;" horiz-adv-x="1280" 
d="M944 1427q0 -123 -88 -193t-216 -69q-128 0 -216 70t-88 192v25h184v-25q0 -59 35 -90t84 -31t85 32t36 92v22h184v-25zM641 848q-129 0 -220 -92t-91 -235q0 -142 90 -233t220 -91t220 91t90 233q0 143 -90 235t-219 92zM66 522q0 238 166 392t407 155q242 0 409 -155
q166 -154 166 -392t-166 -392t-408 -155q-242 1 -408 155t-166 392z" />
    <glyph glyph-name="Ohungarumlaut" unicode="&#x150;" horiz-adv-x="1671" 
d="M526 1550l146 279h221l-152 -279h-215zM885 1550l155 279h256l-213 -279h-198zM836 1237q-200 1 -340 -143t-140 -362t140 -366t340 -148q201 0 340 148t139 366t-139 362t-340 143zM1587 733q0 -317 -216 -537t-535 -220q-320 0 -536 219t-216 537t216 532t536 215
q320 0 535 -214q216 -214 216 -532z" />
    <glyph glyph-name="ohungarumlaut" unicode="&#x151;" horiz-adv-x="1280" 
d="M330 1174l145 278h221l-151 -278h-215zM688 1174l156 278h256l-213 -278h-199zM641 848q-129 0 -220 -92t-91 -235q0 -142 90 -233t220 -91t220 91t90 233q0 143 -90 235t-219 92zM66 522q0 238 166 392t407 155q242 0 409 -155q166 -154 166 -392t-166 -392t-408 -155
q-242 1 -408 155t-166 392z" />
    <glyph glyph-name="OE" unicode="&#x152;" horiz-adv-x="1982" 
d="M846 1245q-212 1 -352 -149t-140 -368t140 -369t352 -150q33 0 145 14v1008q-61 14 -145 14zM82 729q0 313 220 527t544 214q61 0 142 -8t116 -8h758v-227h-609v-381h492v-228h-492v-391h641v-227h-790q-35 0 -116 -9t-142 -9q-322 0 -543 217t-221 530z" />
    <glyph glyph-name="oe" unicode="&#x153;" horiz-adv-x="2015" 
d="M330 520q0 -145 90 -234t220 -89t220 90t90 235q0 146 -90 236t-220 90t-220 -92t-90 -236zM1472 868q-93 0 -161 -58t-86 -159h456q-2 101 -59 159t-150 58zM68 520q0 242 164 396t401 153q279 0 432 -215h4q135 215 412 215q219 0 341 -140t122 -356l-7 -100h-718
q14 -135 101 -206t210 -70q74 1 150 29t114 57l37 28l100 -186q-20 -20 -67 -49q-159 -99 -353 -101q-293 0 -436 222h-4q-156 -221 -438 -222q-241 -1 -403 151t-162 394z" />
    <glyph glyph-name="Racute" unicode="&#x154;" horiz-adv-x="1347" 
d="M530 1550l156 279h268l-215 -279h-209zM449 772h237q106 0 168 60t61 172q0 110 -59 166t-207 57h-200v-455zM184 0v1454h469q203 0 303 -46t164 -148t64 -240t-67 -247q-67 -110 -179 -155v-4q20 -20 49 -71l299 -543h-295l-289 543h-253v-543h-265z" />
    <glyph glyph-name="racute" unicode="&#x155;" horiz-adv-x="804" 
d="M371 1174l155 278h269l-215 -278h-209zM143 0v1044h250v-180l-4 -73h4q37 117 126 193t206 75l47 -4v-256q-27 4 -61 4q-92 0 -171 -55q-137 -95 -137 -334v-414h-260z" />
    <glyph glyph-name="Rcommaaccent" unicode="&#x156;" horiz-adv-x="1347" 
d="M598 -246q0 67 -25 133h215q14 -57 14 -127t-52 -182h-193q41 109 41 176zM449 772h237q106 0 168 60t61 172q0 110 -59 166t-207 57h-200v-455zM184 0v1454h469q203 0 303 -46t164 -148t64 -240t-67 -247q-67 -110 -179 -155v-4q20 -20 49 -71l299 -543h-295l-289 543
h-253v-543h-265z" />
    <glyph glyph-name="rcommaaccent" unicode="&#x157;" horiz-adv-x="804" 
d="M393 -240q0 -70 -53 -182h-193q41 109 41 176t-24 133h215q14 -57 14 -127zM143 0v1044h250v-180l-4 -73h4q37 117 126 193t206 75l47 -4v-256q-27 4 -61 4q-92 0 -171 -55q-137 -95 -137 -334v-414h-260z" />
    <glyph glyph-name="Rcaron" unicode="&#x158;" horiz-adv-x="1347" 
d="M512 1550l-188 279h215l102 -166h4l103 166h215l-191 -279h-260zM449 772h237q106 0 168 60t61 172q0 110 -59 166t-207 57h-200v-455zM184 0v1454h469q203 0 303 -46t164 -148t64 -240t-67 -247q-67 -110 -179 -155v-4q20 -20 49 -71l299 -543h-295l-289 543h-253v-543
h-265z" />
    <glyph glyph-name="rcaron" unicode="&#x159;" horiz-adv-x="804" 
d="M354 1174l-188 278h215l102 -166h4l103 166h215l-191 -278h-260zM143 0v1044h250v-180l-4 -73h4q37 117 126 193t206 75l47 -4v-256q-27 4 -61 4q-92 0 -171 -55q-137 -95 -137 -334v-414h-260z" />
    <glyph glyph-name="Sacute" unicode="&#x15a;" horiz-adv-x="1134" 
d="M463 1550l155 279h269l-215 -279h-209zM104 1057q0 180 140 301t348 121q128 0 236 -39t153 -78l45 -39l-115 -215q-16 14 -44 36q-27 22 -111 56t-172 35q-88 0 -150 -49t-63 -122q1 -73 71 -124t170 -90t200 -88t172 -140q71 -91 71 -221q0 -180 -130 -303t-331 -123
t-328 67t-172 112l-20 20l143 199q17 -17 62 -49q144 -103 288 -104q101 -1 162 45t61 123t-70 131q-71 54 -171 95q-99 40 -201 90t-173 140t-71 213z" />
    <glyph glyph-name="sacute" unicode="&#x15b;" horiz-adv-x="925" 
d="M352 1174l156 278h268l-215 -278h-209zM596 289q0 43 -52 77t-127 62t-150 67q-75 37 -127 105t-52 162q0 141 113 224t286 83q105 0 193 -30t123 -60l35 -29l-97 -192q-34 34 -109 62q-74 28 -138 28t-103 -24t-39 -66t52 -75t127 -61t150 -65t127 -105t52 -163
q0 -135 -108 -224t-291 -90q-115 0 -216 38t-147 77l-43 39l119 182q42 -42 126 -79q84 -36 150 -36t106 26q40 24 40 67z" />
    <glyph glyph-name="Scircumflex" unicode="&#x15c;" horiz-adv-x="1134" 
d="M256 1550l188 279h261l190 -279h-215l-102 166h-5l-102 -166h-215zM104 1057q0 180 140 301t348 121q128 0 236 -39t153 -78l45 -39l-115 -215q-16 14 -44 36q-27 22 -111 56t-172 35q-88 0 -150 -49t-63 -122q1 -73 71 -124t170 -90t200 -88t172 -140q71 -91 71 -221
q0 -180 -130 -303t-331 -123t-328 67t-172 112l-20 20l143 199q17 -17 62 -49q144 -103 288 -104q101 -1 162 45t61 123t-70 131q-71 54 -171 95q-99 40 -201 90t-173 140t-71 213z" />
    <glyph glyph-name="scircumflex" unicode="&#x15d;" horiz-adv-x="925" 
d="M147 1174l189 278h260l190 -278h-215l-102 165h-4l-103 -165h-215zM596 289q0 43 -52 77t-127 62t-150 67q-75 37 -127 105t-52 162q0 141 113 224t286 83q105 0 193 -30t123 -60l35 -29l-97 -192q-34 34 -109 62q-74 28 -138 28t-103 -24t-39 -66t52 -75t127 -61
t150 -65t127 -105t52 -163q0 -135 -108 -224t-291 -90q-115 0 -216 38t-147 77l-43 39l119 182q42 -42 126 -79q84 -36 150 -36t106 26q40 24 40 67z" />
    <glyph glyph-name="Scedilla" unicode="&#x15e;" horiz-adv-x="1134" 
d="M625 -90q149 -18 149 -168q0 -82 -63 -125t-158 -43q-27 0 -125 14v144q43 -16 88 -17q90 1 90 57t-98 56l-43 -4l43 156q-196 15 -362 133q-38 27 -56 43l-16 18l143 199q17 -17 62 -49q144 -103 288 -104q101 -1 162 45t61 123t-70 131q-71 54 -171 95q-99 40 -201 90
t-173 140t-71 213q0 180 140 301t348 121q128 0 236 -39t153 -78l45 -39l-115 -215q-16 14 -44 36q-27 22 -111 56t-172 35q-88 0 -150 -49t-63 -122q1 -73 71 -124t170 -90t200 -88t172 -140q71 -91 71 -221q0 -167 -112 -285t-304 -136z" />
    <glyph glyph-name="scedilla" unicode="&#x15f;" horiz-adv-x="925" 
d="M502 -90q149 -18 149 -168q0 -82 -63 -125t-158 -43q-27 0 -125 14v144q43 -16 88 -17q90 1 90 57t-98 56l-43 -4l43 156q-94 10 -177 48t-118 70l-35 31l119 182q42 -42 125 -78q85 -37 151 -37t106 26q40 24 40 67t-52 77t-127 62t-150 67q-75 37 -127 105t-52 162
q0 141 113 224t286 83q105 0 193 -30t123 -60l35 -29l-97 -192q-34 34 -109 62q-74 28 -138 28t-103 -24t-39 -66t52 -75t127 -61t150 -65t127 -105t52 -178q0 -108 -93 -195t-251 -102z" />
    <glyph glyph-name="Scaron" unicode="&#x160;" horiz-adv-x="1134" 
d="M444 1550l-188 279h215l102 -166h5l102 166h215l-190 -279h-261zM104 1057q0 180 140 301t348 121q128 0 236 -39t153 -78l45 -39l-115 -215q-16 14 -44 36q-27 22 -111 56t-172 35q-88 0 -150 -49t-63 -122q1 -73 71 -124t170 -90t200 -88t172 -140q71 -91 71 -221
q0 -180 -130 -303t-331 -123t-328 67t-172 112l-20 20l143 199q17 -17 62 -49q144 -103 288 -104q101 -1 162 45t61 123t-70 131q-71 54 -171 95q-99 40 -201 90t-173 140t-71 213z" />
    <glyph glyph-name="scaron" unicode="&#x161;" horiz-adv-x="925" 
d="M336 1174l-189 278h215l103 -166h4l102 166h215l-190 -278h-260zM596 289q0 43 -52 77t-127 62t-150 67q-75 37 -127 105t-52 162q0 141 113 224t286 83q105 0 193 -30t123 -60l35 -29l-97 -192q-34 34 -109 62q-74 28 -138 28t-103 -24t-39 -66t52 -75t127 -61t150 -65
t127 -105t52 -163q0 -135 -108 -224t-291 -90q-115 0 -216 38t-147 77l-43 39l119 182q42 -42 126 -79q84 -36 150 -36t106 26q40 24 40 67z" />
    <glyph glyph-name="Tcommaaccent" unicode="&#x162;" horiz-adv-x="1234" 
d="M662 -90q149 -18 149 -168q0 -82 -63 -125t-158 -43q-27 0 -125 14v144q43 -16 88 -17q90 1 90 57t-98 56l-43 -4l49 176h-66v1227h-477v227h1219v-227h-477v-1227h-68z" />
    <glyph glyph-name="tcommaaccent" unicode="&#x163;" horiz-adv-x="774" 
d="M483 -90q150 -18 150 -168q1 -82 -63 -125t-144 -43q-81 0 -123 12l-16 2v144q43 -16 88 -17q90 1 90 57t-98 56l-43 -4l59 215q-193 90 -193 344v438h-135v207h142v301h254v-301h237v-207h-237v-405q1 -113 65 -155t141 -42l48 4v-227q-31 -6 -89 -6t-112 10z" />
    <glyph glyph-name="Tcaron" unicode="&#x164;" horiz-adv-x="1234" 
d="M483 1550l-188 279h215l102 -166h4l103 166h215l-191 -279h-260zM485 0v1227h-477v227h1219v-227h-477v-1227h-265z" />
    <glyph glyph-name="tcaron" unicode="&#x165;" horiz-adv-x="772" 
d="M786 1332q0 -68 -53 -175h-192q41 106 41 170t-25 127h215q14 -54 14 -122zM188 383v438h-135v207h142v301h254v-301h237v-207h-237v-405q1 -113 65 -155t141 -42l47 4v-227q-32 -6 -82 -6t-100 7t-112 32q-63 25 -110 64q-46 40 -78 115t-32 175z" />
    <glyph glyph-name="Tbar" unicode="&#x166;" horiz-adv-x="1275" 
d="M197 604v197h309v426h-477v227h1216v-227h-477v-426h319v-197h-319v-604h-262v604h-309z" />
    <glyph glyph-name="tbar" unicode="&#x167;" horiz-adv-x="817" 
d="M68 489v173h149v159h-135v207h141v301h254v-301h238v-207h-238v-159h223v-173h-223v-86q0 -73 39 -117t80 -56t88 -11l47 4v-227q-31 -6 -113 -6t-164 32q-81 32 -127 72t-78 114q-32 75 -32 175v106h-149z" />
    <glyph glyph-name="Utilde" unicode="&#x168;" horiz-adv-x="1501" 
d="M379 1552q0 281 229 281q60 0 106 -34q46 -35 83 -67t69 -32q80 0 80 127h176q0 -281 -229 -281q-59 0 -105 34t-84 67q-36 33 -69 32q-78 0 -78 -127h-178zM164 522v932h264v-932q0 -143 87 -224t235 -81t235 81q88 81 88 226v930h264v-932q1 -244 -161 -396t-425 -151
q-263 -1 -425 151t-162 396z" />
    <glyph glyph-name="utilde" unicode="&#x169;" horiz-adv-x="1247" 
d="M246 1176q0 281 229 280q59 0 105 -34t84 -66q37 -32 69 -33q80 0 80 127h176q0 -281 -229 -281q-60 0 -106 34t-83 67t-69 33q-78 0 -78 -127h-178zM129 373v671h260v-618q0 -104 36 -158t126 -55q135 0 214 102t79 250v479h260v-1044h-250v119l4 74h-4
q-43 -88 -140 -153t-222 -65q-363 1 -363 398z" />
    <glyph glyph-name="Umacron" unicode="&#x16a;" horiz-adv-x="1501" 
d="M483 1604v178h537v-178h-537zM164 522v932h264v-932q0 -143 87 -224t235 -81t235 81q88 81 88 226v930h264v-932q1 -244 -161 -396t-425 -151q-263 -1 -425 151t-162 396z" />
    <glyph glyph-name="umacron" unicode="&#x16b;" horiz-adv-x="1247" 
d="M350 1227v178h537v-178h-537zM129 373v671h260v-618q0 -104 36 -158t126 -55q135 0 214 102t79 250v479h260v-1044h-250v119l4 74h-4q-43 -88 -140 -153t-222 -65q-363 1 -363 398z" />
    <glyph glyph-name="Ubreve" unicode="&#x16c;" horiz-adv-x="1501" 
d="M1055 1804q0 -122 -88 -192t-216 -70t-216 70t-89 192v25h185v-25q0 -59 35 -90t84 -31t85 32t35 91v23h185v-25zM164 522v932h264v-932q0 -143 87 -224t235 -81t235 81q88 81 88 226v930h264v-932q1 -244 -161 -396t-425 -151q-263 -1 -425 151t-162 396z" />
    <glyph glyph-name="ubreve" unicode="&#x16d;" horiz-adv-x="1247" 
d="M922 1427q0 -123 -88 -193t-217 -69q-128 0 -216 70t-88 192v25h185v-25q0 -59 34 -90t84 -31q49 0 85 32t36 92v22h185v-25zM129 373v671h260v-618q0 -104 36 -158t126 -55q135 0 214 102t79 250v479h260v-1044h-250v119l4 74h-4q-43 -88 -140 -153t-222 -65
q-363 1 -363 398z" />
    <glyph glyph-name="Uring" unicode="&#x16e;" horiz-adv-x="1501" 
d="M751 1616q32 0 51 19t19 51t-19 52q-19 19 -50 19q-30 0 -50 -19t-20 -51t18 -52q19 -19 51 -19zM751 1526q-79 0 -137 43q-57 43 -57 118t57 117q56 42 136 43q80 0 137 -43q57 -44 57 -118t-57 -117t-136 -43zM164 522v932h264v-932q0 -143 87 -224t235 -81t235 81
q88 81 88 226v930h264v-932q1 -244 -161 -396t-425 -151q-263 -1 -425 151t-162 396z" />
    <glyph glyph-name="uring" unicode="&#x16f;" horiz-adv-x="1247" 
d="M549 1310q0 -32 18 -52t50 -19q32 0 52 19q19 20 19 52t-19 51t-51 19t-50 -19q-19 -19 -19 -51zM424 1310q0 76 57 118t136 42t137 -43t57 -117q1 -74 -57 -118q-58 -43 -137 -43t-136 43t-57 118zM129 373v671h260v-618q0 -104 36 -158t126 -55q135 0 214 102t79 250
v479h260v-1044h-250v119l4 74h-4q-43 -88 -140 -153t-222 -65q-363 1 -363 398z" />
    <glyph glyph-name="Uhungarumlaut" unicode="&#x170;" horiz-adv-x="1501" 
d="M440 1550l146 279h221l-152 -279h-215zM799 1550l155 279h256l-213 -279h-198zM164 522v932h264v-932q0 -143 87 -224t235 -81t235 81q88 81 88 226v930h264v-932q1 -244 -161 -396t-425 -151q-263 -1 -425 151t-162 396z" />
    <glyph glyph-name="uhungarumlaut" unicode="&#x171;" horiz-adv-x="1247" 
d="M307 1174l146 278h221l-152 -278h-215zM666 1174l155 278h256l-213 -278h-198zM129 373v671h260v-618q0 -104 36 -158t126 -55q135 0 214 102t79 250v479h260v-1044h-250v119l4 74h-4q-43 -88 -140 -153t-222 -65q-363 1 -363 398z" />
    <glyph glyph-name="Uogonek" unicode="&#x172;" horiz-adv-x="1497" 
d="M657 -229q0 106 107 200v4h-14q-264 0 -425 151t-161 396v932h262v-932q0 -143 87 -224t235 -81t235 81q88 81 88 226v930h262v-932q0 -201 -95 -316q-48 -58 -88 -93t-101 -76q-176 -117 -177 -197q0 -29 25 -47t49 -22l25 -4l-62 -193q-24 0 -77 16q-54 16 -87 36
t-61 58t-27 87z" />
    <glyph glyph-name="uogonek" unicode="&#x173;" horiz-adv-x="1247" 
d="M129 373v671h260v-618q0 -104 36 -158t126 -55q135 0 214 102t79 250v479h260v-1044q-115 -96 -115 -160q0 -29 25 -47t49 -22l24 -4l-61 -193q-25 0 -78 16t-86 36q-32 20 -60 58t-28 87q0 111 133 225v4h-53v119l4 74h-4q-43 -88 -140 -153t-222 -65q-363 1 -363 398z
" />
    <glyph glyph-name="Wcircumflex" unicode="&#x174;" horiz-adv-x="1978" 
d="M674 1550l188 279h260l191 -279h-215l-103 166h-4l-102 -166h-215zM1102 1454l258 -1005q17 -62 26 -154h5q6 72 24 154l240 1005h272l-375 -1454h-305l-223 860l-37 191h-4q-12 -96 -37 -191l-223 -860h-305l-365 1454h273l229 -1005l25 -154h4q9 92 26 154l262 1005
h230z" />
    <glyph glyph-name="wcircumflex" unicode="&#x175;" horiz-adv-x="1681" 
d="M522 1174l189 278h260l190 -278h-215l-102 165h-4l-103 -165h-215zM348 0l-319 1044h274l182 -686l21 -110h4q10 55 25 110l192 684h231l193 -684l23 -110h4q8 55 22 110l182 686h271l-318 -1044h-288l-177 596l-26 113h-4q-8 -57 -25 -113l-176 -596h-291z" />
    <glyph glyph-name="Ycircumflex" unicode="&#x176;" horiz-adv-x="1239" 
d="M301 1550l188 279h261l190 -279h-215l-102 166h-5l-102 -166h-215zM487 0v608l-483 846h299l227 -428q17 -31 31 -63q14 -33 28 -63t25 -64l4 -5h5q41 104 88 195l225 428h299l-483 -846v-608h-265z" />
    <glyph glyph-name="ycircumflex" unicode="&#x177;" horiz-adv-x="1067" 
d="M217 1174l189 278h260l190 -278h-215l-102 165h-4l-103 -165h-215zM205 -211q123 0 180 135l39 92l-440 1028h292l220 -602l39 -141h4q16 82 34 137l205 606h285l-467 -1202q-52 -136 -152 -204t-225 -68q-55 0 -109 16t-81 33l-27 19l86 194q57 -43 117 -43z" />
    <glyph glyph-name="Ydieresis" unicode="&#x178;" horiz-adv-x="1239" 
d="M334 1591v238h201v-238h-201zM711 1591v238h198v-238h-198zM487 0v608l-483 846h299l227 -428q17 -31 31 -63q14 -33 28 -63t25 -64l4 -5h5q41 104 88 195l225 428h299l-483 -846v-608h-265z" />
    <glyph glyph-name="Zacute" unicode="&#x179;" horiz-adv-x="1257" 
d="M539 1550l155 279h269l-215 -279h-209zM78 0v170l645 926q50 74 92 116l14 15v4q-41 -4 -108 -4h-610v227h1050v-168l-645 -928q-50 -74 -92 -116l-14 -15v-4q41 4 108 4h651v-227h-1091z" />
    <glyph glyph-name="zacute" unicode="&#x17a;" horiz-adv-x="1073" 
d="M414 1174l155 278h269l-215 -278h-209zM72 0v139l469 588q32 43 77 84l11 12v4q-31 -4 -97 -4h-440v221h889v-141l-469 -588q-41 -55 -90 -96v-4q31 6 98 6h475v-221h-923z" />
    <glyph glyph-name="Zdotaccent" unicode="&#x17b;" horiz-adv-x="1257" 
d="M541 1602v227h221v-227h-221zM78 0v170l645 926q50 74 92 116l14 15v4q-41 -4 -108 -4h-610v227h1050v-168l-645 -928q-50 -74 -92 -116l-14 -15v-4q41 4 108 4h651v-227h-1091z" />
    <glyph glyph-name="zdotaccent" unicode="&#x17c;" horiz-adv-x="1073" 
d="M416 1225v227h221v-227h-221zM72 0v139l469 588q32 43 77 84l11 12v4q-31 -4 -97 -4h-440v221h889v-141l-469 -588q-41 -55 -90 -96v-4q31 6 98 6h475v-221h-923z" />
    <glyph glyph-name="Zcaron" unicode="&#x17d;" horiz-adv-x="1257" 
d="M520 1550l-188 279h215l102 -166h4l103 166h215l-191 -279h-260zM78 0v170l645 926q50 74 92 116l14 15v4q-41 -4 -108 -4h-610v227h1050v-168l-645 -928q-50 -74 -92 -116l-14 -15v-4q41 4 108 4h651v-227h-1091z" />
    <glyph glyph-name="zcaron" unicode="&#x17e;" horiz-adv-x="1073" 
d="M395 1174l-188 278h215l102 -166h4l103 166h215l-191 -278h-260zM72 0v139l469 588q32 43 77 84l11 12v4q-31 -4 -97 -4h-440v221h889v-141l-469 -588q-41 -55 -90 -96v-4q31 6 98 6h475v-221h-923z" />
    <glyph glyph-name="longs" unicode="&#x17f;" horiz-adv-x="600" 
d="M197 0v821h-129v207h129v47q0 98 30 171q31 73 76 113q45 39 125 71t195 32l88 -6v-221q-23 4 -62 4t-79 -10t-76 -52t-37 -112v-1065h-260z" />
    <glyph glyph-name="florin" unicode="&#x192;" horiz-adv-x="1165" 
d="M178 -16q201 0 217 188l45 512h-153v207h170l20 199q10 98 48 172t85 114q118 100 326 103l176 -17v-221q-111 14 -160 14q-201 0 -219 -190l-16 -174h221v-207h-240l-47 -537q-10 -121 -61 -203t-127 -120q-127 -62 -270 -64l-152 15v221q90 -12 137 -12z" />
    <glyph glyph-name="Scommaaccent" unicode="&#x218;" horiz-adv-x="1134" 
d="M678 -240q0 -70 -53 -182h-193q42 109 42 176t-25 133h215q14 -57 14 -127zM104 1057q0 180 140 301t348 121q128 0 236 -39t153 -78l45 -39l-115 -215q-16 14 -44 36q-27 22 -111 56t-172 35q-88 0 -150 -49t-63 -122q1 -73 71 -124t170 -90t200 -88t172 -140
q71 -91 71 -221q0 -180 -130 -303t-331 -123t-328 67t-172 112l-20 20l143 199q17 -17 62 -49q144 -103 288 -104q101 -1 162 45t61 123t-70 131q-71 54 -171 95q-99 40 -201 90t-173 140t-71 213z" />
    <glyph glyph-name="scommaaccent" unicode="&#x219;" horiz-adv-x="925" 
d="M373 -246q0 67 -25 133h215q15 -57 15 -127t-54 -182h-192q41 109 41 176zM596 289q0 43 -52 77t-127 62t-150 67q-75 37 -127 105t-52 162q0 141 113 224t286 83q105 0 193 -30t123 -60l35 -29l-97 -192q-34 34 -109 62q-74 28 -138 28t-103 -24t-39 -66t52 -75t127 -61
t150 -65t127 -105t52 -163q0 -135 -108 -224t-291 -90q-115 0 -216 38t-147 77l-43 39l119 182q42 -42 126 -79q84 -36 150 -36t106 26q40 24 40 67z" />
    <glyph glyph-name="uni021A" unicode="&#x21a;" horiz-adv-x="1234" 
d="M725 -240q0 -70 -53 -182h-193q41 109 41 176t-24 133h215q14 -57 14 -127zM485 0v1227h-477v227h1219v-227h-477v-1227h-265z" />
    <glyph glyph-name="uni021B" unicode="&#x21b;" horiz-adv-x="772" 
d="M571 -240q0 -70 -53 -182h-192q41 109 41 176t-25 133h215q14 -57 14 -127zM188 383v438h-135v207h142v301h254v-301h237v-207h-237v-405q1 -113 65 -155t141 -42l47 4v-227q-32 -6 -82 -6t-100 7t-112 32q-63 25 -110 64q-46 40 -78 115t-32 175z" />
    <glyph glyph-name="circumflex" unicode="&#x2c6;" horiz-adv-x="1011" 
d="M186 1550l189 279h260l190 -279h-215l-102 166h-4l-103 -166h-215z" />
    <glyph glyph-name="caron" unicode="&#x2c7;" horiz-adv-x="1011" 
d="M375 1550l-189 279h215l103 -166h4l102 166h215l-190 -279h-260z" />
    <glyph glyph-name="breve" unicode="&#x2d8;" horiz-adv-x="1009" 
d="M809 1804q0 -122 -88 -192t-216 -70t-216 70t-88 192v25h184v-25q0 -59 35 -90t84 -31t85 32t36 91v23h184v-25z" />
    <glyph glyph-name="dotaccent" unicode="&#x2d9;" horiz-adv-x="1011" 
d="M395 1602v227h221v-227h-221z" />
    <glyph glyph-name="ring" unicode="&#x2da;" horiz-adv-x="1011" 
d="M505 1616q32 0 51 19t19 51t-19 52q-19 19 -50 19t-50 -19q-20 -19 -20 -51q0 -31 18 -51t51 -20zM505 1526q-79 0 -136 43t-57 118t56 117q58 42 137 43q79 0 136 -43q57 -44 57 -118t-57 -117t-136 -43z" />
    <glyph glyph-name="ogonek" unicode="&#x2db;" horiz-adv-x="1011" 
d="M328 -216q0 62 52 130q52 70 103 102l54 35l147 -26q-55 -41 -98 -97q-43 -55 -43 -86q-1 -31 25 -49t50 -22l25 -4l-63 -193q-10 0 -28 3q-224 40 -224 207z" />
    <glyph glyph-name="tilde" unicode="&#x2dc;" horiz-adv-x="1009" 
d="M133 1552q0 281 229 281q60 0 106 -34q46 -35 83 -67t70 -32q80 0 79 127h177q0 -281 -230 -281q-59 0 -105 34t-83 67t-70 32q-78 0 -78 -127h-178z" />
    <glyph glyph-name="hungarumlaut" unicode="&#x2dd;" horiz-adv-x="1009" 
d="M121 1550l145 279h221l-151 -279h-215zM479 1550l156 279h256l-213 -279h-199z" />
    <glyph glyph-name="uni1E9E" unicode="&#x1e9e;" horiz-adv-x="1433" 
d="M168 0v1016q0 194 125 316t321 122h666v-182l-248 -371l-45 -63v-4l37 -3q141 -18 229 -137t88 -264q0 -180 -130 -305t-316 -125h-305v227h287q88 -1 140 59t52 144t-52 141t-140 58h-172v182l182 289q55 90 92 127v4q-16 -4 -90 -4h-271q-80 1 -133 -59t-53 -148v-1020
h-264z" />
    <glyph glyph-name="thinspace" unicode="&#x2009;" horiz-adv-x="32" 
 />
    <glyph glyph-name="endash" unicode="&#x2013;" horiz-adv-x="1452" 
d="M160 483v203h1132v-203h-1132z" />
    <glyph glyph-name="emdash" unicode="&#x2014;" horiz-adv-x="1861" 
d="M160 483v203h1542v-203h-1542z" />
    <glyph glyph-name="quoteleft" unicode="&#x2018;" horiz-adv-x="485" 
d="M82 1032l154 447h182l-96 -447h-240z" />
    <glyph glyph-name="quoteright" unicode="&#x2019;" horiz-adv-x="473" 
d="M90 1030l96 449h240l-152 -449h-184z" />
    <glyph glyph-name="quotesinglbase" unicode="&#x201a;" horiz-adv-x="512" 
d="M66 -182l96 446h233l-153 -446h-176z" />
    <glyph glyph-name="quotedblleft" unicode="&#x201c;" horiz-adv-x="821" 
d="M82 1032l154 447h184l-98 -447h-240zM418 1032l151 447h185l-97 -447h-239z" />
    <glyph glyph-name="quotedblright" unicode="&#x201d;" 
d="M90 1030l96 449h242l-154 -449h-184zM426 1030l96 449h240l-152 -449h-184z" />
    <glyph glyph-name="quotedblbase" unicode="&#x201e;" horiz-adv-x="837" 
d="M66 -182l96 446h233l-153 -446h-176zM393 -182l96 446h232l-152 -446h-176z" />
    <glyph glyph-name="dagger" unicode="&#x2020;" horiz-adv-x="909" 
d="M328 -102v944h-254v202h254v410h250v-410h258v-202h-258v-944h-250z" />
    <glyph glyph-name="daggerdbl" unicode="&#x2021;" horiz-adv-x="974" 
d="M106 334v201h254v307h-254v202h254v410h250v-410h258v-202h-258v-307h258v-201h-258v-436h-250v436h-254z" />
    <glyph glyph-name="bullet" unicode="&#x2022;" horiz-adv-x="851" 
d="M427 254q-142 0 -243 100q-100 100 -100 242t100 242t242 100t242 -100t100 -242t-99 -242q-100 -100 -242 -100z" />
    <glyph glyph-name="ellipsis" unicode="&#x2026;" horiz-adv-x="1683" 
d="M133 0v260h250v-260h-250zM715 0v260h252v-260h-252zM1298 0v260h252v-260h-252z" />
    <glyph glyph-name="perthousand" unicode="&#x2030;" horiz-adv-x="2385" 
d="M1071 298q0 -56 39 -95t96 -39t98 39q40 39 40 95t-40 96t-98 40t-96 -40q-39 -40 -39 -96zM1835 298q0 -56 39 -95t96 -39t97 39t40 95t-40 96t-97 40t-96 -40t-39 -96zM872 297q0 133 98 228t235 95q139 0 237 -94q98 -96 98 -229t-97 -227t-237 -94t-236 94
q-98 94 -98 227zM1636 297q0 133 98 228t235 95t237 -94q100 -96 100 -229t-98 -227t-238 -94t-236 94q-98 94 -98 227zM412 1020q57 0 97 39t40 95t-40 96t-97 40q-56 0 -96 -40t-40 -96t40 -95t96 -39zM129 0l1116 1454h240l-1116 -1454h-240zM412 831q-138 1 -236 95
t-98 228t98 229t236 95t236 -94q100 -96 100 -230t-98 -228t-238 -95z" />
    <glyph glyph-name="guilsinglleft" unicode="&#x2039;" horiz-adv-x="737" 
d="M408 158l-336 420l336 421h247l-336 -421l336 -420h-247z" />
    <glyph glyph-name="guilsinglright" unicode="&#x203a;" horiz-adv-x="737" 
d="M82 158l336 420l-336 421h248l336 -421l-336 -420h-248z" />
    <glyph glyph-name="fraction" unicode="&#x2044;" horiz-adv-x="366" 
d="M-66 0h-190l688 1454h189z" />
    <glyph glyph-name="zerosuperior" unicode="&#x2070;" 
d="M405 1024q136 0 136 291t-136 291t-136 -291t136 -291zM405 846q-333 0 -333 470t333 470t333 -470t-333 -470z" />
    <glyph glyph-name="foursuperior" unicode="&#x2074;" 
d="M240 1237h219v225l6 113h-4q-25 -55 -53 -96l-168 -238v-4zM459 866v203h-418v131l387 565h221v-528h119v-168h-119v-203h-190z" />
    <glyph glyph-name="fivesuperior" unicode="&#x2075;" 
d="M382 1024q58 0 105 39t48 100t-47 101t-118 41q-70 0 -124 -27l-19 -10l-104 39l45 458h502v-172h-344l-9 -96l-10 -51l4 -2q43 16 105 16q139 0 227 -87t88 -213t-93 -220t-242 -94q-196 0 -314 137l106 137q8 -10 22 -26t64 -43t108 -27z" />
    <glyph glyph-name="sixsuperior" unicode="&#x2076;" 
d="M426 1024q60 0 90 39q31 39 31 98t-38 103q-37 44 -97 45q-60 0 -97 -25t-36 -57q-1 -79 43 -141t104 -62zM426 846q-144 0 -245 112t-101 308q0 285 185 439q97 81 216 81t191 -37l24 -10l-55 -166q-73 33 -143 33t-124 -56t-73 -143h4q53 43 129 43q139 0 223 -84
t84 -213t-86 -218q-85 -89 -229 -89z" />
    <glyph glyph-name="sevensuperior" unicode="&#x2077;" 
d="M432 1593h-342v172h643v-133l-416 -766h-213l359 650l49 77v4q-37 -4 -80 -4z" />
    <glyph glyph-name="eightsuperior" unicode="&#x2078;" 
d="M532 1508q0 58 -36 84t-85 26q-48 0 -81 -22t-33 -59q0 -36 14 -61q20 -36 162 -100q59 74 59 132zM256 1145q0 -65 44 -99t100 -34t98 29q41 30 41 72q0 64 -78 106l-42 23q-25 13 -87 40q-76 -72 -76 -137zM733 1114q0 -124 -97 -196t-232 -72q-136 0 -236 74t-100 203
q0 128 139 229q-96 72 -96 188t88 180q88 66 211 66t214 -68t91 -182t-109 -223q127 -76 127 -199z" />
    <glyph glyph-name="ninesuperior" unicode="&#x2079;" 
d="M262 1471q0 -59 39 -105t97 -45q58 0 96 26q37 26 36 56q0 80 -44 141q-44 62 -103 62t-90 -38t-31 -97zM70 1478q0 130 85 219t229 89t246 -113q101 -113 101 -311q-1 -198 -111 -358q-110 -158 -307 -158q-96 0 -176 35l-24 12l57 166q70 -33 140 -33t125 54
q54 54 75 143h-4q-57 -43 -129 -43q-141 0 -224 84t-83 214z" />
    <glyph glyph-name="zeroinferior" unicode="&#x2080;" 
d="M405 -164q136 0 136 291t-136 291t-136 -291t136 -291zM405 -342q-333 0 -333 470t333 470t333 -470t-333 -470z" />
    <glyph glyph-name="oneinferior" unicode="&#x2081;" 
d="M137 -322v170h189v424l4 58h-4q-8 -18 -31 -39l-64 -60l-114 123l231 224h172v-730h187v-170h-570z" />
    <glyph glyph-name="twoinferior" unicode="&#x2082;" 
d="M90 -238q0 98 44 176t106 122t124 82t106 80t44 89t-36 77t-84 30t-88 -24t-60 -46l-21 -24l-127 112l12 18q7 11 34 39q104 105 244 105t232 -75t91 -204q0 -83 -40 -147q-41 -64 -99 -104t-116 -72q-58 -33 -102 -70t-49 -78h418v-170h-625q-8 57 -8 84z" />
    <glyph glyph-name="threeinferior" unicode="&#x2083;" 
d="M379 -342q-92 0 -168 34t-107 68l-30 35l102 137q30 -37 85 -67q55 -29 115 -29t103 37t43 92t-47 86t-113 31h-71l-41 92l162 184l49 50v4q-41 -6 -72 -6h-264v172h573v-125l-202 -230q100 -18 161 -86q61 -67 61 -183t-93 -206q-94 -90 -246 -90z" />
    <glyph glyph-name="fourinferior" unicode="&#x2084;" 
d="M240 49h219v225l6 113h-4q-25 -55 -53 -96l-168 -238v-4zM459 -322v203h-418v131l387 566h221v-529h119v-168h-119v-203h-190z" />
    <glyph glyph-name="fiveinferior" unicode="&#x2085;" 
d="M382 -164q58 0 105 39t48 100t-47 101t-101 41q-93 0 -141 -27l-19 -10l-104 39l45 459h502v-172h-344l-9 -97l-10 -51l4 -2q43 16 105 16q139 0 227 -87t88 -213t-93 -220t-242 -94q-196 0 -314 137l106 137q8 -10 22 -26t64 -43t108 -27z" />
    <glyph glyph-name="sixinferior" unicode="&#x2086;" 
d="M426 -164q60 0 90 39q31 39 31 98t-38 103q-37 44 -97 45q-60 0 -97 -25t-36 -57q-1 -79 43 -141t104 -62zM426 -342q-144 0 -245 113t-101 307q0 127 44 243q44 117 141 197t216 80t191 -37l24 -10l-55 -166q-73 33 -143 33t-124 -56t-73 -143h4q53 43 129 43
q139 0 223 -84t84 -213t-86 -218q-85 -89 -229 -89z" />
    <glyph glyph-name="seveninferior" unicode="&#x2087;" 
d="M432 406h-342v172h643v-134l-416 -766h-213l359 650l49 78v4q-37 -4 -80 -4z" />
    <glyph glyph-name="eightinferior" unicode="&#x2088;" 
d="M532 320q0 58 -36 84t-85 26q-48 0 -81 -22t-33 -59q0 -36 14 -61q20 -36 162 -100q59 74 59 132zM256 -43q0 -65 44 -99t100 -34t98 30t41 71q0 64 -78 106l-42 23q-25 13 -87 40q-76 -72 -76 -137zM68 -64q0 128 139 228q-96 72 -96 188t88 180q88 66 211 66t214 -68
t91 -182t-109 -223q127 -76 127 -199q0 -124 -97 -196t-232 -72t-236 75q-100 75 -100 203z" />
    <glyph glyph-name="nineinferior" unicode="&#x2089;" 
d="M262 283q0 -59 39 -105t97 -45q58 0 96 26q37 26 36 56q0 80 -44 141q-44 62 -103 62t-90 -38t-31 -97zM70 290q0 130 85 219t229 89t246 -113q101 -113 101 -311q-1 -198 -111 -358q-110 -158 -307 -158q-109 0 -176 35l-24 12l57 166q70 -33 140 -33t125 54
q54 54 75 143h-4q-57 -43 -129 -43q-141 0 -224 84t-83 214z" />
    <glyph glyph-name="Euro" unicode="&#x20ac;" horiz-adv-x="1206" 
d="M63 512v156h115q-10 51 -2 127h-113v157h142q68 234 259 380t441 147q123 0 191 -21l28 -6l-63 -240q-78 20 -162 21q-145 0 -254 -75t-158 -206h523l-31 -157h-528q-8 -55 2 -127h499l-30 -156h-424q50 -131 160 -209t251 -78q89 0 164 21l25 8l49 -242
q-104 -37 -242 -37q-260 -1 -448 147t-252 390h-142z" />
    <glyph glyph-name="trademark" unicode="&#x2122;" horiz-adv-x="1937" 
d="M340 547v735h-303v172h801v-172h-301v-735h-197zM893 547l72 907h182l186 -428l29 -86h4q12 51 27 86l188 428h180l70 -907h-195l-34 467l2 63h-5l-159 -364h-154l-160 364h-4l2 -63l-37 -467h-194z" />
    <glyph glyph-name="minus" unicode="&#x2212;" horiz-adv-x="1267" 
d="M94 483v203h1082v-203h-1082z" />
    <glyph glyph-name="infinity" unicode="&#x221e;" horiz-adv-x="1058" 
d="M530 322q-162 0 -278 116t-115 277q0 163 116 277q115 114 277 114t276 -114t114 -276t-114 -278t-276 -116z" />
    <glyph glyph-name="approxequal" unicode="&#x2248;" horiz-adv-x="1267" 
d="M432 547q102 0 220 -72t186 -72q119 0 219 113l102 -154q-158 -154 -321 -153q-102 0 -220 72t-186 71q-110 1 -219 -112l-100 153q154 154 319 154zM432 967q102 0 220 -72t186 -72q119 0 219 113l102 -154q-156 -156 -321 -155q-102 -1 -220 71t-186 72
q-113 0 -219 -111l-100 152q152 156 319 156z" />
    <glyph glyph-name="notequal" unicode="&#x2260;" horiz-adv-x="1267" 
d="M135 274v201h338l152 219h-490v201h623l155 229l125 -82l-102 -147h199v-201h-330l-152 -219h482v-201h-613l-153 -225l-127 80l100 145h-207z" />
    <glyph glyph-name="lessequal" unicode="&#x2264;" horiz-adv-x="1267" 
d="M135 -174h981v-201h-981v201zM131 502v168l985 438v-227l-710 -293v-4l710 -293v-228z" />
    <glyph glyph-name="greaterequal" unicode="&#x2265;" horiz-adv-x="1267" 
d="M154 -174h983v-201h-983v201zM154 63v228l710 293v4l-710 293v227l985 -438v-168z" />
    <glyph glyph-name="commaaccent" horiz-adv-x="686" 
d="M471 -240q0 -70 -53 -182h-193q41 109 41 176t-24 133h215q14 -57 14 -127z" />
    <glyph glyph-name="apple" horiz-adv-x="2314" 
d="M887 186h203v392h397v172h-397v309h256q26 0 34 -11t9 -38v-60h182v176q0 55 -24 80t-81 25h-690v-172h111v-873zM496 131v248l-203 123v461l203 118v252l440 234l225 -121l219 121l439 -234v-252l204 -118v-461l-204 -123v-248l-439 -233l-219 118l-225 -118zM426 61
l487 -258l248 136l242 -136l487 258v285l234 131v510l-234 135v279l-487 258l-242 -131l-248 131l-487 -258v-279l-233 -135v-510l233 -131v-285zM344 -10v311l-258 148v569l258 145v310l543 290l274 -145l271 145l542 -290v-310l254 -145v-569l-254 -148v-311l-542 -289
l-271 145l-274 -145z" />
    <glyph glyph-name="zero.tnum" horiz-adv-x="1196" 
d="M600 217q256 0 256 509t-256 509t-256 -509t256 -509zM600 -25q-142 -1 -248 57t-164 164q-115 210 -114 533q0 750 526 750q288 0 409 -212t120 -538q-1 -327 -115 -532q-59 -106 -165 -164t-249 -58z" />
    <glyph glyph-name="one.tnum" horiz-adv-x="1196" 
d="M184 0v227h316v807l2 99h-4q-16 -35 -64 -82l-117 -111l-155 164l364 350h232v-1227h315v-227h-889z" />
    <glyph glyph-name="two.tnum" horiz-adv-x="1196" 
d="M121 129q0 205 135 357q91 102 278 231q73 49 132 96q135 108 135 206q1 99 -63 155t-160 55q-96 0 -164 -59q-67 -59 -86 -97l-11 -16l-196 131l16 32q10 19 52 69q43 50 93 88t136 70t184 32q201 0 337 -116t136 -314q0 -109 -48 -203t-121 -156q-74 -62 -158 -124
t-157 -108t-122 -106t-51 -125h680v-227h-965q-12 94 -12 129z" />
    <glyph glyph-name="three.tnum" horiz-adv-x="1196" 
d="M574 225q100 -1 175 61t75 164t-89 160q-88 57 -223 58h-100l-60 135l266 315l105 111v4q-43 -6 -129 -6h-434v227h889v-166l-357 -411q164 -23 281 -135t117 -299t-140 -327t-362 -140q-223 0 -411 124q-42 29 -62 50l-19 20l135 203q16 -16 44 -41t114 -66
q85 -41 185 -41z" />
    <glyph glyph-name="four.tnum" horiz-adv-x="1196" 
d="M317 594h402v450l10 152h-4q-33 -78 -72 -133l-336 -465v-4zM39 375v162l627 917h313v-860h188v-219h-188v-375h-260v375h-680z" />
    <glyph glyph-name="five.tnum" horiz-adv-x="1196" 
d="M817 474q0 112 -83 182t-210 69q-57 0 -113 -15t-83 -30l-29 -16l-145 53l67 737h764v-227h-536l-23 -240l-10 -67h4q68 33 155 32q233 0 373 -137t139 -346q0 -209 -148 -351t-376 -143q-174 0 -291 67t-155 110l-19 20l135 199q10 -15 48 -45q39 -30 73 -50
q83 -49 191 -50q109 -1 191 68q82 68 81 180z" />
    <glyph glyph-name="six.tnum" horiz-adv-x="1196" 
d="M358 573q0 -137 86 -247t192 -109q106 0 167 70q59 69 59 181t-70 188t-182 75q-112 0 -182 -45t-70 -113zM1124 461q0 -205 -133 -345t-359 -141q-226 1 -386 187q-162 186 -162 504q0 245 112 461t315 304q113 48 219 48q182 0 288 -45l33 -17l-78 -227q-92 45 -205 45
q-160 0 -258 -112t-129 -277h4q39 45 117 74t155 28q209 0 338 -141t129 -346z" />
    <glyph glyph-name="seven.tnum" horiz-adv-x="1196" 
d="M735 1227h-620v227h999v-184l-637 -1270h-274l545 1094q35 72 88 133v4q-29 -4 -101 -4z" />
    <glyph glyph-name="eight.tnum" horiz-adv-x="1196" 
d="M406 1075q0 -100 123 -169q94 -53 142 -71t56 -22q98 109 98 246q0 84 -59 134q-58 50 -156 50t-151 -47t-53 -121zM840 420q0 36 -16 66t-74 68q-57 38 -150 80q-94 42 -119 54q-135 -113 -135 -246q0 -100 74 -167t177 -67t173 60q70 58 70 152zM76 422q0 94 49 182
t90 127t80 66q-150 115 -150 281t121 284q121 117 337 117t348 -109t132 -289t-161 -364q186 -119 186 -302t-139 -311t-371 -129q-232 0 -378 128q-144 129 -144 319z" />
    <glyph glyph-name="nine.tnum" horiz-adv-x="1196" 
d="M842 879q0 137 -87 247t-193 109q-106 0 -166 -70q-60 -71 -60 -181t70 -186t184 -77q112 0 182 46t70 112zM470 -25q-180 0 -286 45l-34 17l77 227q92 -47 203 -47q160 0 259 112t130 277h-4q-39 -45 -117 -74t-157 -28q-209 0 -337 142t-128 346t133 345t359 141
t386 -186q162 -186 162 -504q0 -249 -112 -463q-112 -213 -315 -301q-113 -48 -219 -49z" />
    <glyph glyph-name="hyphen.case" horiz-adv-x="1005" 
d="M195 598v227h616v-227h-616z" />
    <glyph glyph-name="parenleft.case" horiz-adv-x="714" 
d="M170 764q0 430 244 815h221q-231 -385 -231 -835t231 -877h-221q-244 399 -244 897z" />
    <glyph glyph-name="parenright.case" horiz-adv-x="714" 
d="M311 744q0 450 -231 835h221q244 -385 244 -815q0 -498 -244 -897h-221q231 427 231 877z" />
    <glyph glyph-name="bracketleft.case" horiz-adv-x="759" 
d="M227 -133v1712h404v-188h-182v-1336h182v-188h-404z" />
    <glyph glyph-name="bracketright.case" horiz-adv-x="759" 
d="M532 1579v-1712h-403v188h180v1336h-180v188h403z" />
    <glyph glyph-name="braceleft.case" horiz-adv-x="854" 
d="M303 207v199q0 57 -18 100q-42 99 -156 112v228q20 0 55 14q119 48 119 203v176q0 88 28 155q27 66 65 102q93 88 270 89l63 -2v-192q-16 2 -45 2q-30 1 -62 -9t-65 -52t-33 -113v-224q0 -146 -108 -227q-32 -23 -60 -33v-4q106 -35 150 -150q18 -48 18 -108v-246
q0 -114 60 -144t108 -30l37 2v-192q-27 -4 -90 -4t-134 26q-71 27 -109 63t-66 102t-27 157z" />
    <glyph glyph-name="braceright.case" horiz-adv-x="854" 
d="M162 53q166 0 166 174v246q0 122 59 182t111 76v4q-107 36 -152 155q-18 48 -18 105v224q0 110 -64 145q-49 27 -102 29l-37 -2v192q27 2 91 2q64 -1 134 -27t108 -62t66 -102t27 -155v-176q0 -93 44 -147t87 -62l43 -8v-228q-20 0 -55 -14t-59 -34t-42 -64
q-18 -43 -18 -100v-199q0 -90 -28 -157q-27 -66 -65 -102q-93 -88 -270 -89l-63 4v192q16 -2 37 -2z" />
    <glyph glyph-name="at.case" horiz-adv-x="1736" 
d="M868 729q0 -84 56 -142t143 -59h158v402h-154q-91 0 -147 -58t-56 -143zM135 722q0 320 222 542q221 222 531 221q310 0 445 -125t135 -320v-512h150v-186h-567q-199 0 -320 113t-121 267t120 266q120 110 321 110h174q-2 80 -90 130t-222 50q-219 0 -371 -166t-151 -393
q0 -227 153 -386t402 -159v-203q-360 0 -586 215q-225 216 -225 536z" />
    <glyph glyph-name="guillemotleft.case" horiz-adv-x="1277" 
d="M449 281l-336 419l336 422h247l-336 -422l336 -419h-247zM907 281l-336 419l336 422h248l-336 -422l336 -419h-248z" />
    <glyph glyph-name="guillemotright.case" horiz-adv-x="1280" 
d="M123 281l336 419l-336 422h248l336 -422l-336 -419h-248zM584 281l336 419l-336 422h247l336 -422l-336 -419h-247z" />
    <glyph glyph-name="guilsinglleft.case" horiz-adv-x="819" 
d="M449 281l-336 419l336 422h247l-336 -422l336 -419h-247z" />
    <glyph glyph-name="guilsinglright.case" horiz-adv-x="819" 
d="M123 281l336 419l-336 422h248l336 -422l-336 -419h-248z" />
    <glyph glyph-name="endash.case" horiz-adv-x="1521" 
d="M195 606v203h1132v-203h-1132z" />
    <glyph glyph-name="emdash.case" horiz-adv-x="1931" 
d="M195 606v203h1542v-203h-1542z" />
    <glyph glyph-name="periodcentered.case" horiz-adv-x="632" 
d="M190 578v260h252v-260h-252z" />
    <glyph glyph-name="questiondown.case" horiz-adv-x="1071" 
d="M131 360q0 92 37 168t89 125t105 95q129 110 127 210v76h250v-94q-1 -82 -35 -150t-83 -115q-49 -46 -99 -88q-120 -101 -119 -202q-1 -72 57 -122t126 -50q110 0 205 66l28 22l146 -180q-16 -16 -47 -41q-32 -25 -132 -65t-206 -40q-182 1 -316 105t-133 280zM489 1212
v242h250v-242h-250z" />
    <glyph glyph-name="exclamdown.case" horiz-adv-x="731" 
d="M229 0l23 1034h227l21 -1034h-271zM240 1212v242h249v-242h-249z" />
    <glyph glyph-name="bullet.case" horiz-adv-x="933" 
d="M468 383q-142 0 -243 100q-100 101 -100 243t100 242q101 100 243 99q142 0 242 -99q100 -100 99 -242q0 -142 -99 -243q-100 -100 -242 -100z" />
    <glyph glyph-name="zero.p_osf" horiz-adv-x="1200" 
d="M356 563q0 -154 60 -260t184 -106q123 0 183 105q61 105 61 258q0 154 -62 262t-183 108q-123 0 -183 -106t-60 -261zM94 561q0 338 220 502q118 88 286 88q248 0 376 -174t128 -418q0 -339 -218 -498q-118 -86 -286 -86q-248 0 -377 172t-129 414z" />
    <glyph glyph-name="one.p_osf" horiz-adv-x="1009" 
d="M125 0v221h303v510l2 133h-4q-31 -33 -78 -61l-158 -92l-118 178l383 237h225v-905h278v-221h-833z" />
    <glyph glyph-name="two.p_osf" horiz-adv-x="1107" 
d="M106 0v176q442 286 548 444q50 74 50 148t-56 115t-134 41t-152 -38t-112 -75l-37 -37l-137 170q22 29 74 69q178 138 375 138q198 0 321 -98t123 -264q0 -165 -124 -299t-358 -273v-4q43 8 129 8h406v-221h-916z" />
    <glyph glyph-name="three.p_osf" horiz-adv-x="1073" 
d="M461 -41q115 0 189 57t73 160q0 103 -93 160t-212 57h-113l-57 127l244 283q49 57 104 104v4q-45 -8 -129 -8h-369v223h840v-151l-360 -395q166 -20 286 -122t121 -282q0 -180 -140 -309t-376 -129q-169 0 -279 59q-109 59 -153 103l-17 18l123 182q88 -88 213 -126
q53 -15 105 -15z" />
    <glyph glyph-name="four.p_osf" horiz-adv-x="1228" 
d="M705 281v444l10 152h-4q-33 -82 -72 -138l-313 -458h379zM49 59v162l592 905h324v-845h194v-222h-194v-297h-260v297h-656z" />
    <glyph glyph-name="five.p_osf" horiz-adv-x="1097" 
d="M492 -33q98 -1 182 61t84 174t-82 176t-197 64t-207 -41l-28 -14l-140 51l68 688h737v-223h-516l-22 -221l-11 -64h5q70 29 157 29q226 0 362 -122q136 -123 136 -323t-148 -328t-374 -128q-131 0 -243 45t-159 90l-47 45l123 180q14 -16 39 -38t105 -62q78 -39 176 -39z
" />
    <glyph glyph-name="six.p_osf" horiz-adv-x="1198" 
d="M373 535q0 -129 82 -233t191 -105q109 0 167 65q57 66 57 174t-68 178t-180 70q-110 0 -180 -43t-69 -106zM471 1320q129 70 287 69q158 0 266 -43l33 -15l-76 -207q-94 43 -205 43q-156 -1 -255 -111t-128 -268h4q37 45 116 73t159 28q207 0 333 -131q125 -131 125 -323
q0 -191 -132 -325t-354 -134t-380 168q-158 169 -158 461t159 530q77 115 206 185z" />
    <glyph glyph-name="seven.p_osf" horiz-adv-x="1077" 
d="M647 905h-592v221h975v-174l-608 -1190h-275l519 1020q37 80 67 113l8 12v4q-23 -6 -94 -6z" />
    <glyph glyph-name="eight.p_osf" horiz-adv-x="1200" 
d="M608 1167q-94 -1 -147 -45t-53 -100t24 -91q53 -77 264 -157q18 -6 29 -10q94 111 94 229q0 80 -58 127q-59 47 -153 47zM840 391q0 53 -31 80t-50 43t-59 34t-92 44q-53 25 -116 51q-141 -100 -142 -227q0 -96 74 -158t175 -63q101 0 171 54t70 142zM92 404
q0 188 213 341q-147 109 -147 267t118 266t326 108q209 0 339 -102t130 -265t-149 -349q180 -113 180 -283t-137 -291t-365 -121t-368 121q-140 120 -140 308z" />
    <glyph glyph-name="nine.p_osf" horiz-adv-x="1204" 
d="M330 692q0 -106 70 -178t180 -72t179 43t68 105q0 131 -82 235q-82 105 -190 105q-109 0 -167 -66t-58 -172zM426 -41q156 0 255 111t128 266h-4q-37 -43 -116 -71t-159 -27q-206 0 -332 130t-126 322t131 327q131 134 355 134t380 -169q158 -169 158 -462t-159 -529
q-77 -114 -206 -184t-289 -69q-82 0 -156 14t-110 29l-33 14l78 207q94 -43 205 -43z" />
    <glyph glyph-name="zero.t_osf" horiz-adv-x="1196" 
d="M356 563q0 -154 60 -260t184 -106q123 0 183 105q61 105 61 258q0 154 -62 262t-183 108q-123 0 -183 -106t-60 -261zM94 561q0 338 220 502q118 88 286 88q248 0 376 -174t128 -418q0 -339 -218 -498q-118 -86 -286 -86q-248 0 -377 172t-129 414z" />
    <glyph glyph-name="one.t_osf" horiz-adv-x="1196" 
d="M231 0v221h304v510l2 133h-5q-31 -33 -77 -61l-158 -92l-119 178l383 237h225v-905h279v-221h-834z" />
    <glyph glyph-name="two.t_osf" horiz-adv-x="1196" 
d="M160 0v176q439 283 548 444q50 74 50 148t-56 115t-135 41q-77 0 -151 -38t-113 -75l-37 -37l-137 170q22 29 74 69q178 138 375 138q198 0 321 -98t123 -264q0 -165 -124 -299t-357 -273v-4q43 8 129 8h405v-221h-915z" />
    <glyph glyph-name="three.t_osf" horiz-adv-x="1196" 
d="M541 -39q115 0 189 57t73 160q0 103 -93 159t-212 56h-111l-57 127l241 283q41 47 93 92l12 12v4q-45 -8 -129 -8h-367v223h838v-151l-361 -395q166 -20 287 -122t121 -280q0 -180 -140 -309t-376 -129q-167 0 -277 59q-109 59 -153 103l-17 18l123 182q88 -88 212 -126
q52 -15 104 -15z" />
    <glyph glyph-name="four.t_osf" horiz-adv-x="1196" 
d="M705 281v444l10 152h-4q-33 -82 -72 -138l-313 -458h379zM49 59v162l592 905h324v-845h194v-222h-194v-297h-260v297h-656z" />
    <glyph glyph-name="five.t_osf" horiz-adv-x="1196" 
d="M554 -33q98 -1 182 61t83 174q0 112 -82 176t-197 64t-206 -41l-29 -14l-139 51l67 688h738v-223h-516l-23 -221l-10 -64h4q70 29 158 29q225 0 361 -122q136 -123 136 -323t-147 -328t-375 -128q-131 0 -243 45t-158 90l-47 45l122 180q14 -16 39 -38t105 -62
q79 -39 177 -39z" />
    <glyph glyph-name="six.t_osf" horiz-adv-x="1196" 
d="M354 535q0 -129 82 -233t192 -105q110 0 167 65q57 66 57 174t-69 178t-179 70t-180 -43t-70 -106zM741 1389q82 -1 156 -15t107 -28l34 -15l-75 -207q-94 43 -205 43q-156 -1 -255 -111t-128 -268h4q37 45 116 73t158 28q207 0 333 -131t126 -323q0 -191 -132 -325
t-354 -134t-380 168q-158 169 -158 461t159 530q77 115 206 185t288 69z" />
    <glyph glyph-name="seven.t_osf" horiz-adv-x="1196" 
d="M705 905h-592v221h974v-174l-608 -1190h-274l518 1020q36 78 68 113l8 12v4q-23 -6 -94 -6z" />
    <glyph glyph-name="eight.t_osf" horiz-adv-x="1196" 
d="M604 1167q-94 -1 -148 -45t-53 -100q0 -94 79 -146q79 -53 153 -80q75 -28 86 -32q94 111 94 229q0 80 -58 127q-59 47 -153 47zM836 391q0 53 -31 80t-50 43t-59 34t-97 46q-58 27 -112 49q-141 -100 -141 -227q0 -96 74 -158t175 -63q101 0 171 54t70 142zM88 404
q0 188 213 341q-147 109 -147 267t118 266t326 108q209 0 339 -102t130 -265t-149 -349q180 -113 180 -283t-137 -291t-365 -121t-368 121q-140 120 -140 308z" />
    <glyph glyph-name="nine.t_osf" horiz-adv-x="1196" 
d="M344 692q0 -106 70 -178t180 -72t179 43t69 105q0 131 -82 235q-82 105 -190 105t-168 -66q-58 -66 -58 -172zM440 -41q156 0 255 111t128 266h-4q-37 -43 -116 -71t-158 -27q-207 0 -333 130t-126 322t131 327q131 134 355 134t380 -169q158 -169 158 -462t-159 -529
q-77 -114 -206 -184t-288 -69q-82 0 -157 14t-107 29l-35 14l78 207q94 -43 204 -43z" />
    <glyph glyph-name="dollar.osf" horiz-adv-x="1089" 
d="M554 207q69 0 119 33t50 84q0 89 -166 151t-253 115q-175 107 -175 278q0 138 95 226t251 112v183h174v-181q94 -8 173 -40t112 -58l33 -29l-101 -207q-40 40 -123 74q-84 35 -155 35q-188 0 -189 -127q-1 -47 61 -83q62 -35 149 -67t174 -74t149 -119t61 -197
q0 -120 -95 -214q-95 -96 -257 -118v-191h-174v189q-109 12 -203 60t-135 89l-41 41l127 193q6 -5 16 -17t44 -39t70 -47t88 -38t121 -17z" />
    <glyph glyph-name="cent.osf" horiz-adv-x="1132" 
d="M92 612q0 186 114 324t306 176v172h182v-162q98 -8 184 -48t123 -75l37 -36l-118 -191q-12 14 -34 34t-90 55q-68 34 -137 34q-139 0 -223 -81t-84 -200q0 -118 84 -200t223 -82q70 0 135 30t95 60l31 31l118 -189q-14 -16 -41 -40t-115 -68t-188 -54v-159h-182v170
q-192 37 -306 175t-114 324z" />
    <glyph glyph-name="sterling.osf" horiz-adv-x="1271" 
d="M106 0v221h121v264h-90v172h90v144q1 178 139 296t343 117q100 0 193 -30t136 -58l43 -28l-116 -191q-119 76 -233 76t-178 -53t-65 -133v-140h414v-172h-414v-264h637v-221h-1020z" />
    <glyph glyph-name="yen.osf" horiz-adv-x="1310" 
d="M186 588v155h168l-264 447h299l174 -324q57 -111 76 -170l12 -30h4q41 113 88 200l172 324h299l-264 -447h178v-155h-270l-74 -129v-8h344v-156h-344v-295h-264v295h-334v156h334v8l-76 129h-258z" />
    <glyph glyph-name="florin.osf" horiz-adv-x="1169" 
d="M178 -37q201 0 217 189l39 440h-153v207h172l18 202q8 98 46 171t85 113q118 100 328 104l176 -17v-221q-111 14 -162 14q-201 0 -219 -188l-16 -178h223v-207h-242l-39 -465q-10 -121 -61 -204t-127 -120q-129 -63 -270 -63l-152 14v221q90 -12 137 -12z" />
    <glyph glyph-name="Euro.osf" horiz-adv-x="1226" 
d="M100 393v144h131q-4 41 -4 69t2 43h-129v144h156q57 184 219 303t412 118q97 0 178 -18l25 -6l-58 -209q-70 20 -174 20t-194 -57t-136 -151h465l-30 -144h-474q-2 -16 -2 -42t5 -70h454l-28 -144h-379q109 -201 352 -200q79 0 156 20l22 8l43 -211q-96 -35 -225 -35
q-242 0 -404 117t-223 301h-160z" />
    <glyph glyph-name="zero.numerator" 
d="M269 1004q0 -290 136 -291q136 0 136 291t-135 290q-137 0 -137 -290zM405 535q-333 0 -333 470t333 470t333 -470t-333 -470z" />
    <glyph glyph-name="one.numerator" 
d="M137 555v170h189v424l4 57h-4q-8 -18 -31 -39l-64 -59l-114 123l231 223h172v-729h187v-170h-570z" />
    <glyph glyph-name="two.numerator" 
d="M90 639q0 98 44 175t106 122t124 83t106 80t44 89t-36 77q-36 29 -84 29t-89 -24t-59 -45l-21 -25l-127 113q69 104 192 144q52 17 109 18q129 0 221 -75t91 -204q0 -82 -40 -146q-41 -64 -99 -105q-58 -40 -116 -73t-103 -69q-44 -37 -48 -78h418v-170h-625q-8 57 -8 84
z" />
    <glyph glyph-name="three.numerator" 
d="M379 535q-92 -1 -168 33t-107 69l-30 35l102 137q8 -11 24 -27t66 -43t110 -27t103 38q43 37 43 92t-47 86t-113 30h-71l-41 93l162 184l49 49v4q-41 -6 -72 -6h-264v172h573v-125l-202 -229q100 -18 161 -86t61 -184t-93 -205q-94 -90 -246 -90z" />
    <glyph glyph-name="four.numerator" 
d="M240 926h219v225l6 113h-4q-25 -55 -53 -97l-168 -237v-4zM459 555v203h-418v131l387 565h221v-528h119v-168h-119v-203h-190z" />
    <glyph glyph-name="five.numerator" 
d="M488 953q-48 40 -119 40t-123 -26l-19 -11l-104 39l45 459h502v-172h-344l-9 -96l-10 -51l4 -2q43 16 105 16q139 0 227 -87t88 -213t-93 -220t-242 -94t-263 88q-29 21 -51 49l106 137q8 -11 22 -27t64 -43t108 -27t105 40q47 39 48 100t-47 101z" />
    <glyph glyph-name="six.numerator" 
d="M426 713q60 0 90 39q31 39 31 98t-38 103q-37 44 -97 44q-60 -1 -97 -25t-36 -57q-1 -80 43 -141t104 -61zM426 535q-144 1 -245 113t-101 306q0 286 185 440q97 81 213 81t194 -37l24 -11l-55 -165q-169 77 -267 -23q-54 -55 -73 -143h4q53 43 129 43q139 0 223 -84
t84 -213t-86 -218q-85 -89 -229 -89z" />
    <glyph glyph-name="seven.numerator" 
d="M432 1282h-342v172h643v-133l-416 -766h-213l359 649l49 78v4q-37 -4 -80 -4z" />
    <glyph glyph-name="eight.numerator" 
d="M411 1307q-48 -1 -81 -23t-33 -58t15 -64q14 -28 64 -52t97 -45q59 74 59 132t-36 84q-37 26 -85 26zM256 834q0 -66 44 -100t100 -34t98 30q41 30 41 72t-27 68q-27 25 -53 39q-27 13 -40 21t-43 21t-44 20q-76 -71 -76 -137zM68 812q0 128 139 228q-96 72 -96 188
t88 182t211 65q123 0 214 -68q91 -69 91 -183t-109 -223q127 -77 127 -199t-97 -195t-232 -73t-236 75q-100 75 -100 203z" />
    <glyph glyph-name="nine.numerator" 
d="M262 1159q0 -59 39 -104t97 -45t96 26q37 26 36 56q0 80 -44 141t-103 61t-90 -38t-31 -97zM70 1166q0 130 85 219t229 89t246 -112q101 -114 101 -312q-1 -198 -111 -357t-307 -158q-91 0 -176 34l-24 13l57 166q70 -33 140 -33t125 54q54 54 75 142h-4
q-57 -43 -129 -43q-141 0 -224 84t-83 214z" />
    <glyph glyph-name="zero.denominator" 
d="M269 448q0 -290 136 -290t136 291t-135 290q-137 -1 -137 -291zM405 -20q-333 0 -333 470t333 470t333 -470t-333 -470z" />
    <glyph glyph-name="one.denominator" 
d="M137 0v170h189v424l4 57h-4q-8 -18 -31 -39l-64 -59l-114 123l231 223h172v-729h187v-170h-570z" />
    <glyph glyph-name="two.denominator" 
d="M90 84q0 98 44 175t106 122t124 83t106 80t44 89t-36 77t-84 30t-88 -24t-60 -48l-21 -23l-127 113q69 104 192 144q52 17 109 18q129 0 221 -75t91 -204q0 -83 -40 -147q-41 -64 -99 -104t-116 -73t-103 -69q-44 -37 -48 -78h418v-170h-625q-8 57 -8 84z" />
    <glyph glyph-name="three.denominator" 
d="M379 -20q-92 0 -168 34t-107 68l-30 35l102 137q8 -10 24 -26t66 -44q50 -26 110 -26t103 37t43 92t-47 86t-113 30h-71l-41 93l162 184l49 49v4q-41 -6 -72 -6h-264v172h573v-125l-202 -229q100 -18 161 -86q61 -67 61 -183t-93 -206q-94 -90 -246 -90z" />
    <glyph glyph-name="four.denominator" 
d="M240 371h219v225l6 113h-4q-25 -55 -53 -97l-168 -237v-4zM459 0v203h-418v131l387 565h221v-528h119v-168h-119v-203h-190z" />
    <glyph glyph-name="five.denominator" 
d="M387 438q-96 0 -141 -28l-19 -9l-104 39l45 459h502v-172h-344l-9 -96l-10 -51l4 -2q43 16 105 16q139 0 227 -87t88 -213t-93 -220t-242 -94t-263 88q-29 21 -51 49l106 137q8 -10 22 -26t64 -44q50 -26 108 -26t105 39t48 100t-47 101t-101 40z" />
    <glyph glyph-name="six.denominator" 
d="M426 158q60 0 90 38q31 38 31 98t-38 104q-37 44 -97 44t-97 -24t-36 -58q-1 -80 43 -141t104 -61zM426 -20q-144 0 -245 112t-101 307q0 286 185 440q97 81 231 81q88 0 176 -35l24 -13l-55 -165q-169 77 -267 -23q-54 -55 -73 -143h4q53 43 129 43q139 0 223 -84
t84 -213t-86 -218q-85 -89 -229 -89z" />
    <glyph glyph-name="seven.denominator" 
d="M432 727h-342v172h643v-133l-416 -766h-213l359 649l49 78v4q-37 -4 -80 -4z" />
    <glyph glyph-name="eight.denominator" 
d="M411 752q-48 0 -81 -22t-33 -59q0 -35 15 -63q14 -28 64 -52t97 -46q59 74 59 132t-36 84q-37 26 -85 26zM256 278q0 -66 44 -99q44 -34 100 -34t98 30q41 30 41 72t-27 68q-27 25 -53 39q-27 14 -40 22t-43 20q-30 13 -44 20q-76 -72 -76 -138zM68 257q0 128 139 228
q-96 72 -96 188q0 115 88 181t211 66t214 -68t91 -182t-109 -224q127 -76 127 -198t-97 -196q-97 -72 -232 -72t-236 74q-100 75 -100 203z" />
    <glyph glyph-name="nine.denominator" 
d="M262 604q0 -59 39 -104t97 -45q58 -1 96 25q37 26 36 57q0 80 -44 141t-103 61t-90 -38t-31 -97zM70 611q0 130 85 219q85 90 229 90t246 -113q101 -113 101 -311q-1 -198 -111 -358q-110 -159 -307 -158q-101 0 -176 36l-24 11l57 166q70 -33 140 -33t125 54
q54 54 75 142h-4q-57 -43 -129 -43q-141 0 -224 84t-83 214z" />
    </font>
</defs>
</svg>
